<svg width="147" height="48" viewBox="0 0 147 48" fill="none" xmlns="http://www.w3.org/2000/svg">
<rect width="147" height="48" rx="8" fill="#C4C4C4"/>
<path d="M47.3942 37.9999L48.3658 35.0148H53.0895L54.0611 37.9999H57.027L52.5142 24.909H48.9475L44.4283 37.9999H47.3942ZM49.0689 32.8543L50.6797 27.9004H50.782L52.3928 32.8543H49.0689Z" fill="white"/>
<path d="M58.7515 41.6817H61.4745V36.4274H61.5576C61.9347 37.2456 62.7593 38.1597 64.3445 38.1597C66.5818 38.1597 68.3268 36.3891 68.3268 33.1036C68.3268 29.7286 66.5051 28.0538 64.3509 28.0538C62.7082 28.0538 61.922 29.0318 61.5576 29.8308H61.4362V28.1817H58.7515V41.6817ZM61.417 33.0908C61.417 31.3394 62.1585 30.2207 63.4816 30.2207C64.8303 30.2207 65.5463 31.3905 65.5463 33.0908C65.5463 34.8038 64.8176 35.9928 63.4816 35.9928C62.1713 35.9928 61.417 34.8422 61.417 33.0908Z" fill="white"/>
<path d="M70.3421 41.6817H73.0651V36.4274H73.1482C73.5254 37.2456 74.3499 38.1597 75.9352 38.1597C78.1724 38.1597 79.9174 36.3891 79.9174 33.1036C79.9174 29.7286 78.0957 28.0538 75.9416 28.0538C74.2988 28.0538 73.5126 29.0318 73.1482 29.8308H73.0268V28.1817H70.3421V41.6817ZM73.0076 33.0908C73.0076 31.3394 73.7491 30.2207 75.0722 30.2207C76.421 30.2207 77.1369 31.3905 77.1369 33.0908C77.1369 34.8038 76.4082 35.9928 75.0722 35.9928C73.7619 35.9928 73.0076 34.8422 73.0076 33.0908Z" fill="white"/>
<path d="M93.4515 28.6739H96.1042C96.0658 26.3408 94.1482 24.73 91.2334 24.73C88.3634 24.73 86.2604 26.3152 86.2732 28.693C86.2668 30.6234 87.6283 31.7293 89.84 32.2598L91.2654 32.6178C92.6908 32.9629 93.4834 33.372 93.4898 34.2541C93.4834 35.2129 92.5758 35.8649 91.1695 35.8649C89.7313 35.8649 88.6958 35.2002 88.6063 33.8898H85.928C85.9983 36.7215 88.0246 38.1852 91.2015 38.1852C94.3975 38.1852 96.2768 36.6575 96.2831 34.2605C96.2768 32.0808 94.634 30.9239 92.3584 30.4125L91.1823 30.1313C90.0445 29.8692 89.0921 29.4473 89.1113 28.5077C89.1113 27.6639 89.8591 27.0439 91.2143 27.0439C92.5374 27.0439 93.3492 27.6448 93.4515 28.6739Z" fill="white"/>
<path d="M103.516 28.1817H101.669V25.8294H98.9457V28.1817H97.6034V30.2271H98.9457V35.3408C98.9329 37.2648 100.243 38.2172 102.218 38.1341C102.922 38.1085 103.42 37.9679 103.695 37.8784L103.267 35.8521C103.132 35.8777 102.845 35.9416 102.589 35.9416C102.046 35.9416 101.669 35.7371 101.669 34.9828V30.2271H103.516V28.1817Z" fill="white"/>
<path d="M109.82 38.1916C112.799 38.1916 114.653 36.1526 114.653 33.1291C114.653 30.0865 112.799 28.0538 109.82 28.0538C106.842 28.0538 104.988 30.0865 104.988 33.1291C104.988 36.1526 106.842 38.1916 109.82 38.1916ZM109.833 36.0823C108.459 36.0823 107.756 34.823 107.756 33.11C107.756 31.3969 108.459 30.1313 109.833 30.1313C111.182 30.1313 111.885 31.3969 111.885 33.11C111.885 34.823 111.182 36.0823 109.833 36.0823Z" fill="white"/>
<path d="M116.623 37.9999H119.346V32.4452C119.346 31.2371 120.228 30.4061 121.43 30.4061C121.807 30.4061 122.325 30.47 122.581 30.5531V28.1369C122.338 28.0794 121.999 28.0411 121.724 28.0411C120.625 28.0411 119.724 28.6803 119.366 29.8948H119.263V28.1817H116.623V37.9999Z" fill="white"/>
<path d="M128.206 38.1916C130.635 38.1916 132.271 37.0091 132.655 35.1874L130.136 35.0212C129.862 35.769 129.158 36.159 128.251 36.159C126.889 36.159 126.026 35.2577 126.026 33.7939V33.7875H132.712V33.0396C132.712 29.703 130.693 28.0538 128.097 28.0538C125.208 28.0538 123.335 30.1057 123.335 33.1355C123.335 36.2484 125.183 38.1916 128.206 38.1916ZM126.026 32.1C126.084 30.9814 126.934 30.0865 128.142 30.0865C129.325 30.0865 130.143 30.9303 130.149 32.1H126.026Z" fill="white"/>
<path d="M52.1932 11.9999H53.4659C53.088 10.0312 51.4375 8.67889 49.2898 8.67889C46.6797 8.67889 44.8352 10.6874 44.8352 13.909C44.8352 17.1306 46.6648 19.1391 49.3693 19.1391C51.7954 19.1391 53.5255 17.5233 53.5255 15.0028V13.909H49.6477V15.0028H52.3324C52.2976 16.8323 51.0944 17.9857 49.3693 17.9857C47.4801 17.9857 46.0284 16.5539 46.0284 13.909C46.0284 11.2641 47.4801 9.8323 49.2898 9.8323C50.7613 9.8323 51.7606 10.6626 52.1932 11.9999Z" fill="white"/>
<path d="M58.9298 19.159C60.481 19.159 61.6145 18.3834 61.9725 17.23L60.8389 16.9118C60.5406 17.7073 59.8496 18.105 58.9298 18.105C57.5527 18.105 56.6031 17.2151 56.5485 15.5795H62.0918V15.0823C62.0918 12.2385 60.4014 11.2641 58.8105 11.2641C56.7423 11.2641 55.3702 12.8948 55.3702 15.2414C55.3702 17.588 56.7225 19.159 58.9298 19.159ZM56.5485 14.5653C56.628 13.377 57.4682 12.3181 58.8105 12.3181C60.0833 12.3181 60.8986 13.2726 60.8986 14.5653H56.5485Z" fill="white"/>
<path d="M67.4476 11.3635H65.8169V9.534H64.6436V11.3635H63.4902V12.3579H64.6436V17.1306C64.6436 18.463 65.7175 19.0993 66.7118 19.0993C67.1493 19.0993 67.4277 19.0198 67.5868 18.9601L67.3482 17.9062C67.2487 17.926 67.0896 17.9658 66.8311 17.9658C66.3141 17.9658 65.8169 17.8067 65.8169 16.8124V12.3579H67.4476V11.3635Z" fill="white"/>
<path d="M73.65 18.9999H74.8233V11.3635H73.65V18.9999ZM74.2466 10.0908C74.704 10.0908 75.0818 9.73287 75.0818 9.29537C75.0818 8.85787 74.704 8.49991 74.2466 8.49991C73.7892 8.49991 73.4114 8.85787 73.4114 9.29537C73.4114 9.73287 73.7892 10.0908 74.2466 10.0908Z" fill="white"/>
<path d="M80.5433 11.3635H78.9126V9.534H77.7393V11.3635H76.5859V12.3579H77.7393V17.1306C77.7393 18.463 78.8132 19.0993 79.8075 19.0993C80.245 19.0993 80.5234 19.0198 80.6825 18.9601L80.4439 17.9062C80.3444 17.926 80.1853 17.9658 79.9268 17.9658C79.4098 17.9658 78.9126 17.8067 78.9126 16.8124V12.3579H80.5433V11.3635Z" fill="white"/>
<path d="M90.1463 11.3635H88.4361V10.588C88.4361 9.8323 88.7542 9.43457 89.5298 9.43457C89.8679 9.43457 90.0667 9.51412 90.1861 9.55389L90.5241 8.53968C90.3451 8.46014 89.9872 8.34082 89.4105 8.34082C88.3167 8.34082 87.2628 8.99707 87.2628 10.3096V11.3635H86.0298V12.3579H87.2628V18.9999H88.4361V12.3579H90.1463V11.3635Z" fill="white"/>
<path d="M92.0406 18.9999H93.2139V14.1675C93.2139 13.1334 94.0293 12.3778 95.1429 12.3778C95.4561 12.3778 95.7793 12.4374 95.8588 12.4573V11.2641C95.7246 11.2542 95.4164 11.2442 95.2423 11.2442C94.3276 11.2442 93.5321 11.7613 93.2537 12.517H93.1742V11.3635H92.0406V18.9999Z" fill="white"/>
<path d="M100.369 19.159C102.438 19.159 103.83 17.588 103.83 15.2215C103.83 12.8351 102.438 11.2641 100.369 11.2641C98.3013 11.2641 96.9092 12.8351 96.9092 15.2215C96.9092 17.588 98.3013 19.159 100.369 19.159ZM100.369 18.105C98.7985 18.105 98.0825 16.7528 98.0825 15.2215C98.0825 13.6903 98.7985 12.3181 100.369 12.3181C101.94 12.3181 102.656 13.6903 102.656 15.2215C102.656 16.7528 101.94 18.105 100.369 18.105Z" fill="white"/>
<path d="M105.871 18.9999H107.044V14.2272C107.044 13.1086 107.859 12.3181 108.774 12.3181C109.664 12.3181 110.285 12.8998 110.285 13.7698V18.9999H111.479V14.0283C111.479 13.0439 112.095 12.3181 113.169 12.3181C114.004 12.3181 114.72 12.7606 114.72 13.8891V18.9999H115.893V13.8891C115.893 12.0944 114.929 11.2641 113.567 11.2641C112.473 11.2641 111.673 11.7662 111.28 12.5567H111.2C110.822 11.7414 110.156 11.2641 109.152 11.2641C108.158 11.2641 107.422 11.7414 107.104 12.5567H107.004V11.3635H105.871V18.9999Z" fill="white"/>
<path d="M32.0438 34.4984C30.8673 36.2343 29.6199 37.9281 27.7204 37.9561C25.8209 37.9981 25.2114 36.8502 23.0568 36.8502C20.888 36.8502 20.2218 37.9281 18.4215 37.9981C16.5646 38.0681 15.1612 36.1503 13.9705 34.4564C11.5466 30.9986 9.68964 24.629 12.1845 20.3453C13.4177 18.2175 15.629 16.8735 18.0246 16.8315C19.839 16.8035 21.5684 18.0495 22.6882 18.0495C23.7939 18.0495 25.8918 16.5516 28.089 16.7755C29.0104 16.8175 31.5902 17.1395 33.2487 19.5474C33.1211 19.6314 30.1727 21.3392 30.2011 24.881C30.2436 29.1087 33.9575 30.5226 34 30.5366C33.9575 30.6346 33.4046 32.5525 32.0438 34.4984ZM23.9498 12.0999C24.9846 10.9379 26.6998 10.056 28.1173 10C28.3016 11.6379 27.6354 13.2898 26.6431 14.4657C25.665 15.6556 24.0491 16.5796 22.4614 16.4536C22.2488 14.8437 23.0426 13.1638 23.9498 12.0999Z" fill="white"/>
</svg>
