<svg width="50" height="51" viewBox="0 0 50 51" fill="none" xmlns="http://www.w3.org/2000/svg">
<ellipse cx="24.5252" cy="25.5672" rx="17.2396" ry="17.6277" transform="rotate(-39.7253 24.5252 25.5672)" fill="#F09A38"/>
<path fill-rule="evenodd" clip-rule="evenodd" d="M19.2921 27.8042C19.8489 28.1143 20.5116 28.1515 21.0873 27.905L27.0764 24.9189L23.0371 30.1557C22.6745 30.6806 22.5824 31.3516 22.7887 31.9673L25.1323 37.2116C25.2798 37.6609 25.6927 37.9733 26.1609 37.9898C26.6291 38.0063 27.0498 37.7233 27.209 37.2848L33.228 21.074C33.3693 20.7016 33.2963 20.2771 33.0374 19.9656C32.7785 19.654 32.3746 19.5046 31.9826 19.5753L14.9439 22.5246C14.4836 22.6008 14.1283 22.9626 14.0589 23.4259C13.9894 23.8892 14.2209 24.3523 14.6356 24.5796L19.2921 27.8042Z" fill="white"/>
</svg>
