<svg width="270" height="161" viewBox="0 0 270 161" fill="none" xmlns="http://www.w3.org/2000/svg">
<rect y="0.788086" width="270" height="160" rx="30" fill="#AE5C24"/>
<path d="M24.672 38.6921V34.1561L31.104 23.7401L34.632 25.9721L29.328 34.6121L29.688 35.1401H39.888V38.6921H24.672ZM33.864 41.7881V29.0921H37.992V41.7881H33.864Z" fill="white"/>
<rect x="28" y="51.8545" width="208.882" height="93" rx="17" transform="rotate(-8.27599 28 51.8545)" fill="#F09A38"/>
<path d="M93.6443 57.227L95.1544 57.0073L100.807 66.2015L98.8117 66.4917L97.5708 64.3803L93.3176 64.9989L92.7574 67.3723L90.8039 67.6564L93.6443 57.227ZM96.7436 62.9727L94.6531 59.2023L93.6957 63.416L96.7436 62.9727ZM105.611 60.7491C105.388 60.5741 105.161 60.442 104.931 60.3529C104.701 60.2637 104.476 60.2352 104.254 60.2675C103.949 60.3118 103.685 60.4068 103.461 60.5526C103.237 60.6984 103.05 60.8764 102.902 61.0866C102.762 61.2955 102.664 61.5268 102.607 61.7803C102.558 62.0326 102.553 62.288 102.591 62.5466C102.628 62.8052 102.706 63.0486 102.824 63.2766C102.951 63.5033 103.112 63.6969 103.305 63.8575C103.507 64.0167 103.736 64.1342 103.993 64.2101C104.249 64.286 104.53 64.3018 104.834 64.2575C105.093 64.2199 105.326 64.1341 105.533 64.0003C105.738 63.8572 105.905 63.6727 106.032 63.4466L107.314 64.4769C107.172 64.6673 106.998 64.8387 106.794 64.991C106.599 65.142 106.396 65.2705 106.185 65.3766C105.975 65.4828 105.77 65.5645 105.57 65.6217C105.373 65.6882 105.2 65.7322 105.052 65.7537C104.553 65.8263 104.07 65.8117 103.603 65.7099C103.135 65.6081 102.717 65.4284 102.35 65.1706C101.982 64.9128 101.671 64.5856 101.415 64.189C101.167 63.7817 101.005 63.3149 100.928 62.7884C100.852 62.262 100.875 61.7729 100.998 61.3211C101.129 60.8588 101.333 60.4518 101.612 60.1C101.891 59.7481 102.24 59.4569 102.659 59.2261C103.079 58.9954 103.538 58.8438 104.036 58.7712C104.461 58.7094 104.898 58.7307 105.347 58.8352C105.804 58.9291 106.22 59.128 106.594 59.4319L105.611 60.7491ZM109.258 59.1293L109.286 59.1253C109.375 58.8294 109.565 58.5471 109.856 58.2784C110.155 57.9991 110.563 57.8219 111.08 57.7466C111.523 57.6822 111.908 57.7016 112.235 57.8051C112.57 57.9072 112.852 58.0642 113.081 58.2761C113.31 58.4881 113.489 58.745 113.618 59.0469C113.746 59.3489 113.836 59.6707 113.885 60.0124L114.496 64.2103L112.834 64.4521L112.344 61.0855C112.317 60.9008 112.278 60.6989 112.227 60.48C112.175 60.2517 112.094 60.0467 111.982 59.8648C111.879 59.6724 111.735 59.5236 111.55 59.4185C111.363 59.3041 111.127 59.2678 110.841 59.3094C110.563 59.3497 110.335 59.4301 110.154 59.5507C109.983 59.67 109.844 59.8175 109.737 59.9933C109.64 60.1678 109.579 60.3606 109.553 60.5719C109.527 60.7832 109.53 60.9996 109.562 61.2213L110.09 64.8511L108.428 65.0929L106.904 54.6191L108.567 54.3773L109.258 59.1293ZM120.406 62.4168L120.365 62.4229C120.18 62.8365 119.915 63.1579 119.571 63.3871C119.226 63.6071 118.832 63.7494 118.389 63.8138C118.084 63.8582 117.778 63.8603 117.47 63.8201C117.171 63.7787 116.895 63.6916 116.64 63.5589C116.394 63.4249 116.183 63.2433 116.009 63.0141C115.834 62.7849 115.722 62.504 115.674 62.1715C115.621 61.8113 115.642 61.4971 115.735 61.2289C115.827 60.9515 115.967 60.7142 116.155 60.517C116.351 60.3093 116.585 60.1338 116.856 59.9906C117.128 59.8473 117.413 59.7305 117.711 59.6399C118.017 59.5388 118.326 59.4608 118.639 59.4059C118.95 59.3418 119.244 59.2896 119.521 59.2493L119.937 59.1888L119.911 59.0087C119.85 58.5931 119.662 58.3045 119.346 58.1429C119.029 57.9721 118.649 57.919 118.205 57.9835C117.854 58.0345 117.536 58.1469 117.25 58.3205C116.963 58.4849 116.724 58.6895 116.533 58.9341L115.533 58.1883C115.847 57.7559 116.237 57.4209 116.703 57.1835C117.177 56.9447 117.678 56.787 118.204 56.7104C118.675 56.6419 119.08 56.6395 119.42 56.7034C119.758 56.7579 120.045 56.8529 120.282 56.9882C120.518 57.1236 120.708 57.294 120.851 57.4996C121.002 57.6946 121.117 57.8995 121.195 58.1145C121.283 58.3281 121.347 58.5404 121.387 58.7515C121.426 58.9534 121.457 59.1328 121.48 59.2898L122.036 63.1136L120.539 63.3312L120.406 62.4168ZM120.009 60.3667L119.663 60.417C119.432 60.4506 119.175 60.4975 118.891 60.5576C118.607 60.6177 118.342 60.7035 118.094 60.815C117.854 60.916 117.656 61.0485 117.501 61.2125C117.344 61.3674 117.283 61.5648 117.318 61.805C117.341 61.962 117.393 62.0912 117.474 62.1926C117.562 62.2835 117.667 62.3578 117.789 62.4156C117.911 62.4733 118.043 62.5106 118.187 62.5274C118.33 62.535 118.47 62.5287 118.609 62.5085C119.182 62.4252 119.582 62.2302 119.811 61.9234C120.048 61.606 120.132 61.2118 120.064 60.7407L120.009 60.3667ZM122.287 57.7293L122.081 56.3162L123.453 56.1167L123.173 54.191L124.835 53.9492L125.115 55.8749L126.944 55.6089L127.15 57.022L125.321 57.288L125.744 60.1974C125.793 60.5299 125.891 60.7844 126.039 60.9609C126.197 61.136 126.46 61.1968 126.83 61.143C126.977 61.1215 127.137 61.0842 127.308 61.0309C127.479 60.9685 127.609 60.8929 127.7 60.8042L127.903 62.2035C127.74 62.3121 127.531 62.3991 127.276 62.4645C127.032 62.5377 126.813 62.5884 126.619 62.6166C126.176 62.6811 125.804 62.6834 125.503 62.6234C125.212 62.5713 124.97 62.4604 124.775 62.2907C124.589 62.1103 124.442 61.877 124.334 61.5909C124.236 61.3034 124.158 60.9657 124.102 60.5778L123.658 57.5298L122.287 57.7293ZM132.341 54.8238L134.004 54.582L134.157 55.6349L134.185 55.6309C134.313 55.2161 134.533 54.8777 134.843 54.6155C135.154 54.3534 135.531 54.1901 135.975 54.1256C136.076 54.1108 136.175 54.1059 136.27 54.111C136.374 54.1147 136.479 54.123 136.585 54.1359L136.818 55.743C136.674 55.7262 136.532 55.7186 136.391 55.7203C136.257 55.7114 136.126 55.7164 135.997 55.7352C135.609 55.7916 135.305 55.9112 135.087 56.0939C134.876 56.266 134.719 56.4538 134.617 56.6574C134.524 56.8596 134.468 57.0564 134.448 57.2478C134.438 57.4379 134.44 57.5791 134.453 57.6715L134.971 61.232L133.309 61.4739L132.341 54.8238ZM139.381 57.7894C139.509 58.2801 139.759 58.6398 140.132 58.8686C140.505 59.0973 140.927 59.1774 141.398 59.1089C141.813 59.0484 142.148 58.9149 142.401 58.7083C142.661 58.4912 142.879 58.2379 143.054 57.9484L144.376 58.6756C144.058 59.2123 143.674 59.6172 143.223 59.8902C142.773 60.1633 142.284 60.3381 141.757 60.4147C141.259 60.4872 140.776 60.4726 140.308 60.3709C139.841 60.2691 139.423 60.0893 139.055 59.8316C138.688 59.5738 138.376 59.2466 138.12 58.8499C137.872 58.4427 137.71 57.9758 137.634 57.4494C137.557 56.9229 137.58 56.4338 137.703 55.9821C137.834 55.5198 138.039 55.1127 138.318 54.7609C138.597 54.4091 138.946 54.1178 139.365 53.8871C139.784 53.6564 140.243 53.5047 140.742 53.4322C141.204 53.365 141.636 53.387 142.039 53.4982C142.45 53.5987 142.811 53.782 143.123 54.0478C143.445 54.3123 143.712 54.6601 143.926 55.0911C144.147 55.5116 144.3 56.0128 144.385 56.5947L144.451 57.0519L139.381 57.7894ZM142.608 56.0468C142.527 55.5587 142.319 55.1975 141.983 54.9634C141.646 54.7201 141.214 54.6367 140.688 54.7133C140.189 54.7858 139.813 54.9868 139.559 55.3161C139.314 55.6441 139.194 56.0529 139.199 56.5426L142.608 56.0468ZM140.778 50.3711L142.662 50.0971L140.998 52.3762L139.696 52.5656L140.778 50.3711ZM152.473 58.6862L150.894 58.916L150.739 57.8492L150.711 57.8532C150.602 58.2086 150.405 58.5344 150.118 58.8308C149.829 59.118 149.408 59.3019 148.854 59.3825C148.411 59.447 148.022 59.4328 147.688 59.3399C147.361 59.2365 147.084 59.0788 146.855 58.8668C146.625 58.6457 146.445 58.3841 146.316 58.0822C146.187 57.7803 146.098 57.4584 146.048 57.1167L145.438 52.9189L147.1 52.677L147.59 56.0436C147.617 56.2283 147.656 56.4348 147.708 56.663C147.759 56.882 147.836 57.0877 147.94 57.2802C148.051 57.462 148.195 57.6108 148.372 57.7265C148.558 57.8316 148.798 57.8627 149.093 57.8197C149.37 57.7794 149.595 57.6996 149.766 57.5804C149.946 57.4598 150.085 57.3123 150.183 57.1378C150.289 56.962 150.355 56.7685 150.381 56.5572C150.407 56.346 150.404 56.1295 150.372 55.9078L149.844 52.278L151.506 52.0362L152.473 58.6862ZM157.208 53.0884C156.819 52.6829 156.352 52.5197 155.807 52.599C155.585 52.6312 155.376 52.7182 155.18 52.86C154.984 53.0017 154.904 53.1972 154.94 53.4466C154.969 53.6498 155.079 53.7848 155.268 53.8517C155.457 53.9185 155.69 53.9648 155.967 53.9905C156.244 54.0162 156.541 54.0438 156.856 54.0733C157.179 54.0923 157.486 54.1562 157.775 54.265C158.063 54.3646 158.313 54.5263 158.525 54.7502C158.737 54.974 158.874 55.303 158.937 55.7371C158.995 56.1343 158.956 56.4841 158.821 56.7867C158.694 57.0788 158.504 57.3281 158.251 57.5346C158.007 57.7398 157.72 57.9042 157.389 58.0278C157.058 58.1514 156.721 58.2381 156.38 58.2878C155.862 58.363 155.376 58.3583 154.92 58.2737C154.465 58.189 154.038 57.9776 153.64 57.6394L154.597 56.4391C154.844 56.6484 155.1 56.814 155.363 56.9361C155.633 57.0476 155.944 57.0779 156.295 57.0268C156.415 57.0093 156.538 56.9773 156.663 56.9308C156.789 56.8843 156.902 56.8207 157.003 56.7399C157.105 56.6591 157.181 56.5678 157.232 56.4661C157.291 56.3537 157.312 56.2329 157.293 56.1036C157.259 55.8727 157.147 55.7146 156.955 55.6293C156.763 55.544 156.529 55.4885 156.252 55.4628C155.973 55.4279 155.673 55.4055 155.351 55.3958C155.037 55.3755 154.736 55.3201 154.449 55.2298C154.161 55.1302 153.912 54.9731 153.702 54.7585C153.491 54.5439 153.355 54.2241 153.293 53.7993C153.24 53.4298 153.267 53.1004 153.376 52.8111C153.493 52.5112 153.663 52.2553 153.887 52.0436C154.111 51.8318 154.378 51.6609 154.689 51.5307C155.001 51.4006 155.323 51.3113 155.655 51.2629C156.098 51.1985 156.548 51.2132 157.005 51.307C157.461 51.3917 157.85 51.5992 158.171 51.9297L157.208 53.0884ZM163.364 52.193C162.975 51.7875 162.508 51.6243 161.963 51.7036C161.741 51.7358 161.532 51.8228 161.336 51.9645C161.14 52.1063 161.06 52.3018 161.096 52.5512C161.125 52.7544 161.235 52.8894 161.424 52.9563C161.612 53.0231 161.846 53.0694 162.123 53.095C162.4 53.1207 162.696 53.1484 163.012 53.1779C163.335 53.1969 163.642 53.2608 163.931 53.3696C164.219 53.4692 164.469 53.6309 164.681 53.8548C164.893 54.0786 165.03 54.4076 165.093 54.8417C165.151 55.2388 165.112 55.5887 164.977 55.8913C164.85 56.1834 164.66 56.4326 164.407 56.6392C164.163 56.8444 163.876 57.0088 163.545 57.1324C163.214 57.256 162.877 57.3427 162.536 57.3924C162.018 57.4676 161.532 57.4629 161.076 57.3783C160.621 57.2936 160.194 57.0822 159.796 56.744L160.753 55.5437C161 55.753 161.256 55.9186 161.518 56.0407C161.789 56.1522 162.1 56.1824 162.451 56.1314C162.571 56.1139 162.694 56.0819 162.819 56.0354C162.945 55.9889 163.058 55.9253 163.159 55.8445C163.261 55.7637 163.337 55.6724 163.388 55.5707C163.447 55.4583 163.468 55.3375 163.449 55.2082C163.415 54.9773 163.303 54.8192 163.111 54.7339C162.919 54.6486 162.685 54.5931 162.408 54.5674C162.129 54.5324 161.829 54.5101 161.507 54.5004C161.192 54.48 160.892 54.4247 160.605 54.3344C160.317 54.2348 160.068 54.0777 159.858 53.8631C159.647 53.6485 159.511 53.3287 159.449 52.9039C159.396 52.5344 159.423 52.205 159.532 51.9157C159.649 51.6158 159.819 51.3599 160.043 51.1482C160.267 50.9364 160.534 50.7654 160.845 50.6353C161.157 50.5052 161.478 50.4159 161.811 50.3675C162.254 50.303 162.704 50.3177 163.161 50.4116C163.617 50.4962 164.006 50.7038 164.327 51.0343L163.364 52.193ZM165.733 49.9668L167.395 49.725L168.363 56.375L166.7 56.6169L165.733 49.9668ZM165.169 47.7429C165.13 47.475 165.193 47.23 165.359 47.0078C165.533 46.7751 165.772 46.6365 166.077 46.5922C166.381 46.5479 166.65 46.6079 166.881 46.7723C167.12 46.9261 167.261 47.1462 167.302 47.4325C167.344 47.7188 167.273 47.9744 167.088 48.1993C166.912 48.4136 166.672 48.5429 166.367 48.5872C166.062 48.6315 165.794 48.5715 165.563 48.4071C165.339 48.2321 165.208 48.0107 165.169 47.7429ZM171.202 53.1608C171.33 53.6515 171.581 54.0112 171.953 54.2399C172.326 54.4687 172.748 54.5488 173.219 54.4802C173.635 54.4198 173.969 54.2863 174.222 54.0797C174.483 53.8626 174.701 53.6093 174.875 53.3198L176.198 54.047C175.88 54.5837 175.495 54.9886 175.045 55.2616C174.594 55.5347 174.105 55.7095 173.579 55.7861C173.08 55.8586 172.597 55.844 172.129 55.7422C171.662 55.6405 171.244 55.4607 170.877 55.2029C170.509 54.9452 170.198 54.618 169.942 54.2213C169.694 53.8141 169.532 53.3472 169.455 52.8208C169.379 52.2943 169.402 51.8052 169.525 51.3535C169.655 50.8912 169.86 50.4841 170.139 50.1323C170.418 49.7805 170.767 49.4892 171.186 49.2585C171.606 49.0277 172.064 48.8761 172.563 48.8035C173.025 48.7364 173.457 48.7584 173.86 48.8695C174.271 48.9701 174.632 49.1533 174.945 49.4192C175.266 49.6837 175.534 50.0314 175.747 50.4625C175.969 50.883 176.122 51.3842 176.206 51.9661L176.273 52.4233L171.202 53.1608ZM174.429 51.4182C174.349 50.93 174.14 50.5689 173.805 50.3348C173.467 50.0915 173.036 50.0081 172.509 50.0847C172.01 50.1572 171.634 50.3582 171.38 50.6875C171.135 51.0154 171.016 51.4243 171.021 51.9139L174.429 51.4182ZM69.4893 79.9404L73.3131 79.3842C73.6825 79.3305 74.0541 79.3236 74.4277 79.3636C74.8 79.3943 75.1395 79.4911 75.4461 79.654C75.7607 79.8063 76.0285 80.0267 76.2497 80.3152C76.4708 80.6037 76.6137 80.9696 76.6782 81.413C76.7588 81.9671 76.6683 82.4472 76.4066 82.853C76.145 83.2589 75.7716 83.5773 75.2864 83.8082L75.2905 83.8359C75.6006 83.8286 75.8951 83.8753 76.1739 83.9762C76.4605 84.0666 76.7117 84.2045 76.9273 84.3901C77.1416 84.5664 77.3197 84.7858 77.4616 85.0481C77.6114 85.2998 77.7091 85.5827 77.7548 85.8967C77.8327 86.4324 77.7916 86.8958 77.6316 87.2869C77.4702 87.6688 77.2302 87.9961 76.9114 88.2688C76.6006 88.5309 76.2256 88.7411 75.7865 88.8993C75.3566 89.0561 74.9107 89.1681 74.4489 89.2353L70.9161 89.7492L69.4893 79.9404ZM71.8153 83.6765L73.4086 83.4448C73.9904 83.3601 74.4084 83.1861 74.6625 82.9228C74.9245 82.6489 75.0286 82.3273 74.9748 81.9578C74.913 81.533 74.715 81.2411 74.3806 81.0822C74.0542 80.9128 73.5584 80.8764 72.8934 80.9732L71.4526 81.1827L71.8153 83.6765ZM72.4441 87.999L74.0512 87.7653C74.2728 87.733 74.5063 87.6849 74.7517 87.6209C75.0063 87.5556 75.2324 87.4567 75.43 87.3242C75.6277 87.1917 75.7823 87.023 75.894 86.8181C76.0043 86.604 76.036 86.3353 75.989 86.0121C75.9137 85.4948 75.6905 85.1595 75.3192 85.006C74.9571 84.8512 74.4205 84.8255 73.7093 84.9289L72.033 85.1728L72.4441 87.999ZM78.78 81.8146L80.4425 81.5728L80.5956 82.6257L80.6234 82.6217C80.7516 82.2069 80.9712 81.8684 81.2821 81.6063C81.5929 81.3441 81.97 81.1808 82.4133 81.1164C82.5149 81.1016 82.6132 81.0967 82.7083 81.1017C82.8126 81.1054 82.9175 81.1137 83.0231 81.1267L83.2569 82.7338C83.113 82.717 82.9704 82.7094 82.8292 82.7111C82.6959 82.7022 82.5645 82.7072 82.4352 82.726C82.0473 82.7824 81.744 82.902 81.5254 83.0847C81.3146 83.2568 81.158 83.4446 81.0556 83.6481C80.9624 83.8503 80.9061 84.0471 80.8868 84.2386C80.8768 84.4287 80.8784 84.5699 80.8919 84.6623L81.4098 88.2228L79.7473 88.4646L78.78 81.8146ZM89.1553 86.1625L89.1137 86.1685C88.9287 86.5821 88.6642 86.9035 88.3202 87.1328C87.975 87.3527 87.5807 87.495 87.1373 87.5595C86.8326 87.6038 86.5263 87.6059 86.2187 87.5658C85.9203 87.5243 85.6435 87.4372 85.3884 87.3046C85.1426 87.1705 84.9323 86.9889 84.7574 86.7597C84.5826 86.5305 84.471 86.2496 84.4227 85.9171C84.3703 85.5569 84.3906 85.2427 84.4836 84.9745C84.5753 84.6971 84.7153 84.4598 84.9035 84.2627C85.0997 84.0549 85.3335 83.8795 85.6051 83.7362C85.8766 83.593 86.1614 83.4761 86.4595 83.3856C86.7655 83.2845 87.0748 83.2065 87.3875 83.1516C87.6988 83.0874 87.993 83.0352 88.2701 82.9949L88.6857 82.9344L88.6595 82.7543C88.5991 82.3387 88.4109 82.0501 88.095 81.8886C87.7778 81.7178 87.3975 81.6646 86.9542 81.7291C86.6032 81.7802 86.2848 81.8925 85.9988 82.0661C85.7114 82.2305 85.4724 82.4351 85.2816 82.6798L84.2819 81.9339C84.5962 81.5015 84.9861 81.1665 85.4514 80.9291C85.926 80.6903 86.4265 80.5326 86.9529 80.456C87.424 80.3875 87.8292 80.3852 88.1686 80.449C88.5066 80.5036 88.794 80.5985 89.0306 80.7339C89.2672 80.8692 89.457 81.0397 89.6001 81.2452C89.7511 81.4402 89.8658 81.6451 89.9442 81.8601C90.0319 82.0737 90.0958 82.286 90.1359 82.4971C90.1747 82.699 90.2055 82.8784 90.2283 83.0354L90.7845 86.8592L89.2883 87.0768L89.1553 86.1625ZM88.758 84.1123L88.4117 84.1627C88.1808 84.1962 87.9235 84.2431 87.6399 84.3032C87.3562 84.3633 87.0905 84.4492 86.8426 84.5607C86.6027 84.6616 86.405 84.7941 86.2497 84.9581C86.093 85.113 86.0321 85.3105 86.067 85.5506C86.0899 85.7076 86.1417 85.8368 86.2225 85.9383C86.3111 86.0291 86.4163 86.1034 86.5378 86.1612C86.6594 86.219 86.7922 86.2562 86.9361 86.273C87.0787 86.2806 87.2192 86.2743 87.3578 86.2541C87.9304 86.1709 88.3312 85.9758 88.56 85.669C88.7968 85.3516 88.881 84.9574 88.8124 84.4863L88.758 84.1123ZM90.7054 80.08L92.5203 79.816L94.9708 84.2131L94.9985 84.209L96.1086 79.2941L97.8126 79.0462L96.1615 86.0771L94.3881 86.335L90.7054 80.08ZM98.9413 82.2774C98.8647 81.7509 98.8879 81.2618 99.0108 80.8101C99.1416 80.3478 99.3465 79.9407 99.6254 79.5889C99.9043 79.2371 100.253 78.9458 100.673 78.7151C101.092 78.4844 101.551 78.3327 102.049 78.2602C102.548 78.1876 103.031 78.2022 103.499 78.304C103.966 78.4058 104.384 78.5855 104.751 78.8433C105.119 79.1011 105.427 79.4336 105.675 79.8408C105.93 80.2374 106.097 80.699 106.173 81.2255C106.25 81.7519 106.223 82.2463 106.092 82.7086C105.969 83.1603 105.768 83.5621 105.489 83.9139C105.21 84.2657 104.861 84.557 104.442 84.7878C104.023 85.0185 103.564 85.1701 103.065 85.2427C102.566 85.3152 102.083 85.3006 101.616 85.1989C101.148 85.0971 100.731 84.9173 100.363 84.6596C99.9954 84.4018 99.6837 84.0746 99.4279 83.6779C99.1801 83.2707 99.0178 82.8038 98.9413 82.2774ZM100.604 82.0356C100.641 82.2942 100.719 82.5375 100.837 82.7656C100.965 82.9923 101.125 83.1859 101.318 83.3464C101.52 83.5056 101.75 83.6232 102.006 83.6991C102.262 83.775 102.543 83.7908 102.847 83.7464C103.152 83.7021 103.417 83.607 103.641 83.4613C103.865 83.3155 104.046 83.1382 104.186 82.9293C104.334 82.719 104.433 82.4878 104.481 82.2356C104.538 81.982 104.548 81.7259 104.511 81.4673C104.473 81.2087 104.391 80.966 104.263 80.7393C104.145 80.5113 103.985 80.3176 103.783 80.1584C103.59 79.9979 103.365 79.8797 103.109 79.8038C102.852 79.7279 102.572 79.7121 102.267 79.7564C101.962 79.8008 101.698 79.8958 101.474 80.0416C101.25 80.1873 101.063 80.3653 100.915 80.5756C100.775 80.7845 100.677 81.0157 100.62 81.2693C100.571 81.5215 100.566 81.777 100.604 82.0356ZM110.445 77.2087L112.26 76.9448L114.71 81.3418L114.738 81.3378L115.848 76.4228L117.552 76.175L115.901 83.2058L114.128 83.4638L110.445 77.2087ZM118.681 79.4061C118.604 78.8797 118.627 78.3906 118.75 77.9389C118.881 77.4765 119.086 77.0695 119.365 76.7177C119.644 76.3659 119.993 76.0746 120.412 75.8438C120.831 75.6131 121.29 75.4615 121.789 75.3889C122.288 75.3164 122.771 75.331 123.238 75.4328C123.706 75.5345 124.123 75.7143 124.491 75.9721C124.859 76.2298 125.166 76.5623 125.414 76.9696C125.67 77.3662 125.836 77.8278 125.913 78.3542C125.989 78.8807 125.962 79.3751 125.831 79.8374C125.708 80.2891 125.507 80.6909 125.229 81.0427C124.95 81.3945 124.601 81.6858 124.181 81.9165C123.762 82.1473 123.303 82.2989 122.805 82.3714C122.306 82.444 121.823 82.4294 121.355 82.3276C120.888 82.2259 120.47 82.0461 120.102 81.7883C119.735 81.5305 119.423 81.2033 119.167 80.8067C118.92 80.3995 118.757 79.9326 118.681 79.4061ZM120.343 79.1643C120.381 79.4229 120.459 79.6663 120.577 79.8943C120.704 80.121 120.864 80.3146 121.057 80.4752C121.26 80.6344 121.489 80.7519 121.745 80.8278C122.002 80.9037 122.282 80.9195 122.587 80.8752C122.892 80.8309 123.156 80.7358 123.38 80.59C123.604 80.4443 123.786 80.2669 123.925 80.058C124.074 79.8478 124.172 79.6166 124.22 79.3643C124.278 79.1108 124.288 78.8547 124.25 78.596C124.213 78.3374 124.13 78.0948 124.003 77.8681C123.885 77.64 123.725 77.4464 123.522 77.2872C123.329 77.1267 123.104 77.0084 122.848 76.9325C122.592 76.8566 122.311 76.8408 122.007 76.8852C121.702 76.9295 121.437 77.0246 121.213 77.1703C120.989 77.3161 120.803 77.4941 120.654 77.7043C120.515 77.9132 120.417 78.1445 120.359 78.3981C120.311 78.6503 120.306 78.9057 120.343 79.1643ZM134.021 80.5702L132.442 80.7999L132.286 79.7331L132.259 79.7372C132.15 80.0925 131.952 80.4184 131.665 80.7148C131.377 81.0019 130.956 81.1858 130.402 81.2664C129.958 81.3309 129.569 81.3167 129.235 81.2239C128.909 81.1204 128.631 80.9627 128.403 80.7508C128.172 80.5296 127.993 80.2681 127.864 79.9661C127.735 79.6642 127.646 79.3424 127.596 79.0006L126.986 74.8028L128.648 74.561L129.138 77.9276C129.165 78.1123 129.204 78.3187 129.256 78.547C129.307 78.7659 129.384 78.9717 129.487 79.1641C129.599 79.346 129.743 79.4948 129.92 79.6105C130.105 79.7156 130.346 79.7467 130.641 79.7037C130.918 79.6634 131.142 79.5836 131.314 79.4644C131.494 79.3438 131.633 79.1963 131.73 79.0218C131.837 78.846 131.903 78.6524 131.929 78.4412C131.955 78.2299 131.951 78.0134 131.919 77.7918L131.391 74.162L133.054 73.9202L134.021 80.5702ZM138.756 74.9724C138.367 74.5668 137.9 74.4037 137.355 74.4829C137.133 74.5152 136.924 74.6022 136.728 74.7439C136.531 74.8856 136.451 75.0812 136.488 75.3306C136.517 75.5338 136.626 75.6688 136.815 75.7356C137.004 75.8025 137.237 75.8487 137.515 75.8744C137.792 75.9001 138.088 75.9277 138.404 75.9573C138.727 75.9763 139.034 76.0402 139.323 76.149C139.611 76.2486 139.861 76.4103 140.073 76.6341C140.284 76.858 140.422 77.1869 140.485 77.621C140.543 78.0182 140.504 78.3681 140.369 78.6707C140.241 78.9627 140.051 79.212 139.798 79.4186C139.555 79.6238 139.267 79.7882 138.936 79.9118C138.606 80.0354 138.269 80.122 137.927 80.1717C137.41 80.247 136.924 80.2423 136.468 80.1576C136.013 80.073 135.586 79.8616 135.188 79.5234L136.145 78.3231C136.392 78.5323 136.647 78.698 136.91 78.8201C137.181 78.9316 137.492 78.9618 137.843 78.9108C137.963 78.8933 138.086 78.8613 138.211 78.8148C138.336 78.7683 138.45 78.7046 138.551 78.6238C138.653 78.5431 138.729 78.4518 138.78 78.35C138.839 78.2377 138.859 78.1169 138.841 77.9876C138.807 77.7567 138.694 77.5985 138.503 77.5132C138.311 77.4279 138.077 77.3724 137.799 77.3467C137.521 77.3118 137.221 77.2895 136.898 77.2797C136.584 77.2594 136.284 77.2041 135.997 77.1137C135.709 77.0142 135.46 76.8571 135.25 76.6424C135.039 76.4278 134.903 76.1081 134.841 75.6832C134.787 75.3138 134.815 74.9844 134.924 74.695C135.041 74.3951 135.211 74.1393 135.435 73.9275C135.658 73.7158 135.926 73.5448 136.237 73.4147C136.548 73.2845 136.87 73.1953 137.203 73.1469C137.646 73.0824 138.096 73.0971 138.553 73.191C139.009 73.2756 139.397 73.4832 139.719 73.8137L138.756 74.9724ZM144.296 72.2849L146.111 72.0209L148.561 76.418L148.589 76.414L149.699 71.499L151.403 71.2511L149.752 78.282L147.978 78.54L144.296 72.2849ZM154.279 74.8224C154.407 75.3131 154.657 75.6728 155.03 75.9015C155.403 76.1302 155.825 76.2103 156.296 76.1418C156.711 76.0814 157.046 75.9479 157.298 75.7413C157.559 75.5242 157.777 75.2708 157.952 74.9813L159.274 75.7086C158.956 76.2453 158.572 76.6501 158.121 76.9232C157.67 77.1962 157.182 77.3711 156.655 77.4476C156.157 77.5202 155.673 77.5056 155.206 77.4038C154.738 77.302 154.321 77.1223 153.953 76.8645C153.586 76.6067 153.274 76.2795 153.018 75.8829C152.77 75.4756 152.608 75.0088 152.532 74.4823C152.455 73.9559 152.478 73.4668 152.601 73.0151C152.732 72.5527 152.937 72.1457 153.216 71.7939C153.495 71.4421 153.844 71.1508 154.263 70.92C154.682 70.6893 155.141 70.5377 155.64 70.4651C156.102 70.3979 156.534 70.4199 156.937 70.5311C157.347 70.6317 157.709 70.8149 158.021 71.0807C158.343 71.3452 158.61 71.693 158.824 72.1241C159.045 72.5446 159.198 73.0458 159.283 73.6276L159.349 74.0848L154.279 74.8224ZM157.506 73.0798C157.425 72.5916 157.217 72.2305 156.881 71.9964C156.544 71.7531 156.112 71.6697 155.586 71.7463C155.087 71.8188 154.71 72.0197 154.457 72.349C154.212 72.677 154.092 73.0858 154.097 73.5755L157.506 73.0798ZM160.336 69.9518L161.915 69.7221L162.07 70.7889L162.098 70.7848C162.207 70.4295 162.405 70.1082 162.694 69.8211C162.981 69.5247 163.401 69.3362 163.955 69.2556C164.399 69.1911 164.783 69.2106 165.11 69.314C165.445 69.4161 165.727 69.5731 165.956 69.785C166.185 69.997 166.364 70.2539 166.493 70.5558C166.622 70.8578 166.711 71.1796 166.761 71.5214L167.371 75.7192L165.709 75.961L165.219 72.5944C165.192 72.4097 165.153 72.2079 165.103 71.9889C165.051 71.7607 164.969 71.5556 164.858 71.3737C164.754 71.1813 164.61 71.0325 164.425 70.9274C164.238 70.813 164.002 70.7767 163.716 70.8183C163.439 70.8586 163.21 70.9391 163.029 71.0596C162.858 71.1789 162.719 71.3264 162.613 71.5022C162.515 71.6767 162.454 71.8696 162.428 72.0808C162.402 72.2921 162.405 72.5085 162.438 72.7302L162.966 76.36L161.303 76.6018L160.336 69.9518ZM170.189 72.5081C170.317 72.9988 170.568 73.3585 170.941 73.5872C171.313 73.8159 171.735 73.896 172.206 73.8275C172.622 73.7671 172.956 73.6335 173.209 73.427C173.47 73.2099 173.688 72.9565 173.863 72.667L175.185 73.3942C174.867 73.9309 174.483 74.3358 174.032 74.6089C173.581 74.8819 173.093 75.0568 172.566 75.1333C172.067 75.2059 171.584 75.1913 171.117 75.0895C170.649 74.9877 170.232 74.808 169.864 74.5502C169.496 74.2924 169.185 73.9652 168.929 73.5686C168.681 73.1613 168.519 72.6945 168.442 72.168C168.366 71.6416 168.389 71.1525 168.512 70.7007C168.643 70.2384 168.848 69.8314 169.126 69.4796C169.405 69.1277 169.754 68.8365 170.174 68.6057C170.593 68.375 171.052 68.2234 171.55 68.1508C172.012 68.0836 172.445 68.1056 172.847 68.2168C173.258 68.3174 173.62 68.5006 173.932 68.7664C174.253 69.0309 174.521 69.3787 174.734 69.8098C174.956 70.2303 175.109 70.7315 175.194 71.3133L175.26 71.7705L170.189 72.5081ZM173.416 70.7655C173.336 70.2773 173.128 69.9162 172.792 69.6821C172.455 69.4387 172.023 69.3554 171.496 69.4319C170.998 69.5045 170.621 69.7054 170.367 70.0347C170.123 70.3627 170.003 70.7715 170.008 71.2612L173.416 70.7655ZM176.519 72.8182L179.533 68.5458L179.529 68.5181L176.135 69.0118L175.942 67.6818L181.345 66.8959L181.565 68.406L178.517 72.7399L182.285 72.1917L182.478 73.5218L176.743 74.356L176.519 72.8182ZM193.116 70.9558L193.089 70.9598C192.908 71.4011 192.627 71.7437 192.248 71.9876C191.868 72.2314 191.443 72.3876 190.972 72.4561C190.455 72.5313 189.98 72.5107 189.548 72.3944C189.124 72.2674 188.746 72.0677 188.414 71.7954C188.082 71.523 187.811 71.1851 187.602 70.7817C187.392 70.3784 187.252 69.9319 187.181 69.4424C187.109 68.9529 187.121 68.4843 187.217 68.0366C187.312 67.5889 187.475 67.1879 187.707 66.8335C187.947 66.4779 188.253 66.1834 188.625 65.9501C188.995 65.7077 189.416 65.5522 189.887 65.4836C190.201 65.438 190.483 65.43 190.732 65.4597C190.982 65.4894 191.206 65.5417 191.406 65.6164C191.605 65.6911 191.779 65.7791 191.925 65.8804C192.071 65.9724 192.193 66.0678 192.292 66.1665L192.334 66.1605L191.655 61.4916L193.317 61.2498L194.841 71.7236L193.261 71.9533L193.116 70.9558ZM188.843 69.2006C188.881 69.4592 188.959 69.7025 189.077 69.9306C189.204 70.1573 189.364 70.3509 189.557 70.5115C189.76 70.6707 189.989 70.7882 190.245 70.8641C190.501 70.94 190.782 70.9558 191.087 70.9115C191.392 70.8671 191.656 70.7721 191.88 70.6263C192.104 70.4806 192.286 70.3032 192.425 70.0943C192.574 69.8841 192.672 69.6528 192.72 69.4006C192.778 69.147 192.788 68.8909 192.75 68.6323C192.712 68.3737 192.63 68.131 192.503 67.9043C192.385 67.6763 192.224 67.4827 192.022 67.3235C191.829 67.1629 191.604 67.0447 191.348 66.9688C191.092 66.8929 190.811 66.8771 190.506 66.9215C190.202 66.9658 189.937 67.0608 189.713 67.2066C189.489 67.3524 189.303 67.5304 189.154 67.7406C189.015 67.9495 188.916 68.1808 188.859 68.4343C188.811 68.6866 188.806 68.942 188.843 69.2006ZM197.654 68.5131C197.782 69.0038 198.033 69.3635 198.405 69.5923C198.778 69.821 199.2 69.9011 199.671 69.8326C200.087 69.7721 200.421 69.6386 200.674 69.4321C200.935 69.2149 201.153 68.9616 201.327 68.6721L202.65 69.3993C202.332 69.936 201.947 70.3409 201.497 70.6139C201.046 70.887 200.557 71.0618 200.031 71.1384C199.532 71.2109 199.049 71.1963 198.582 71.0946C198.114 70.9928 197.696 70.813 197.329 70.5553C196.961 70.2975 196.65 69.9703 196.394 69.5736C196.146 69.1664 195.984 68.6996 195.907 68.1731C195.831 67.6466 195.854 67.1575 195.977 66.7058C196.108 66.2435 196.312 65.8364 196.591 65.4846C196.87 65.1328 197.219 64.8415 197.638 64.6108C198.058 64.3801 198.517 64.2284 199.015 64.1559C199.477 64.0887 199.909 64.1107 200.312 64.2219C200.723 64.3225 201.085 64.5057 201.397 64.7715C201.718 65.036 201.986 65.3838 202.199 65.8148C202.421 66.2353 202.574 66.7365 202.658 67.3184L202.725 67.7756L197.654 68.5131ZM200.881 66.7705C200.801 66.2824 200.593 65.9212 200.257 65.6871C199.919 65.4438 199.488 65.3604 198.961 65.437C198.462 65.5096 198.086 65.7105 197.832 66.0398C197.587 66.3678 197.468 66.7766 197.473 67.2663L200.881 66.7705ZM64.8465 103.041L66.509 102.799L66.6622 103.852L66.6899 103.848C66.8182 103.434 67.0378 103.095 67.3486 102.833C67.6594 102.571 68.0365 102.407 68.4799 102.343C68.5815 102.328 68.6798 102.323 68.7748 102.328C68.8791 102.332 68.9841 102.34 69.0897 102.353L69.3235 103.96C69.1795 103.944 69.037 103.936 68.8957 103.938C68.7624 103.929 68.6311 103.934 68.5018 103.953C68.1139 104.009 67.8106 104.129 67.5919 104.311C67.3812 104.483 67.2246 104.671 67.1221 104.875C67.0289 105.077 66.9727 105.274 66.9534 105.465C66.9433 105.655 66.945 105.797 66.9584 105.889L67.4763 109.449L65.8138 109.691L64.8465 103.041ZM71.886 106.007C72.014 106.498 72.2644 106.857 72.6372 107.086C73.01 107.315 73.4319 107.395 73.9029 107.326C74.3186 107.266 74.6528 107.132 74.9057 106.926C75.1665 106.709 75.3843 106.455 75.5592 106.166L76.8816 106.893C76.5635 107.43 76.1792 107.835 75.7284 108.108C75.2777 108.381 74.7891 108.556 74.2627 108.632C73.7639 108.705 73.2808 108.69 72.8133 108.588C72.3457 108.487 71.9282 108.307 71.5606 108.049C71.193 107.791 70.8813 107.464 70.6255 107.067C70.3777 106.66 70.2155 106.193 70.1389 105.667C70.0623 105.14 70.0855 104.651 70.2084 104.2C70.3392 103.737 70.5441 103.33 70.823 102.978C71.102 102.627 71.451 102.335 71.8701 102.105C72.2893 101.874 72.7483 101.722 73.247 101.65C73.7088 101.582 74.1411 101.604 74.544 101.716C74.9548 101.816 75.3162 101.999 75.6284 102.265C75.9498 102.53 76.2173 102.877 76.431 103.309C76.6525 103.729 76.8055 104.23 76.8902 104.812L76.9567 105.269L71.886 106.007ZM75.1128 104.264C75.0324 103.776 74.8242 103.415 74.4883 103.181C74.1511 102.938 73.7193 102.854 73.1928 102.931C72.6941 103.003 72.3178 103.204 72.0639 103.534C71.8192 103.861 71.6994 104.27 71.7047 104.76L75.1128 104.264ZM82.7774 102.47C82.5539 102.295 82.3272 102.163 82.0973 102.074C81.8674 101.985 81.6417 101.956 81.42 101.989C81.1152 102.033 80.8508 102.128 80.6268 102.274C80.4028 102.42 80.2164 102.598 80.0678 102.808C79.9284 103.017 79.83 103.248 79.7726 103.502C79.7244 103.754 79.7191 104.009 79.7567 104.268C79.7943 104.526 79.8722 104.77 79.9902 104.998C80.1175 105.225 80.2777 105.418 80.4709 105.579C80.6732 105.738 80.9025 105.855 81.1588 105.931C81.415 106.007 81.6956 106.023 82.0004 105.979C82.259 105.941 82.4917 105.855 82.6986 105.722C82.9042 105.578 83.0707 105.394 83.1981 105.168L84.4798 106.198C84.3377 106.389 84.1646 106.56 83.9604 106.712C83.7654 106.863 83.5624 106.992 83.3515 107.098C83.1406 107.204 82.9356 107.286 82.7364 107.343C82.5386 107.409 82.3658 107.453 82.218 107.475C81.7192 107.548 81.2361 107.533 80.7686 107.431C80.3011 107.329 79.8835 107.15 79.5159 106.892C79.1483 106.634 78.8366 106.307 78.5809 105.91C78.333 105.503 78.1708 105.036 78.0942 104.51C78.0176 103.983 78.0408 103.494 78.1637 103.042C78.2946 102.58 78.4994 102.173 78.7784 101.821C79.0573 101.469 79.4063 101.178 79.8255 100.947C80.2446 100.717 80.7036 100.565 81.2023 100.492C81.6272 100.431 82.0642 100.452 82.5132 100.556C82.9701 100.65 83.3858 100.849 83.7601 101.153L82.7774 102.47ZM86.5249 103.878C86.6529 104.368 86.9033 104.728 87.2761 104.957C87.6489 105.185 88.0708 105.265 88.5419 105.197C88.9575 105.137 89.2918 105.003 89.5447 104.796C89.8055 104.579 90.0233 104.326 90.1981 104.036L91.5205 104.764C91.2025 105.3 90.8181 105.705 90.3673 105.978C89.9166 106.251 89.428 106.426 88.9016 106.503C88.4028 106.575 87.9197 106.561 87.4522 106.459C86.9847 106.357 86.5671 106.177 86.1995 105.92C85.8319 105.662 85.5202 105.335 85.2645 104.938C85.0166 104.531 84.8544 104.064 84.7778 103.537C84.7012 103.011 84.7244 102.522 84.8473 102.07C84.9781 101.608 85.183 101.201 85.4619 100.849C85.7409 100.497 86.0899 100.206 86.5091 99.9752C86.9282 99.7445 87.3872 99.5928 87.8859 99.5203C88.3477 99.4531 88.7801 99.4751 89.1829 99.5863C89.5937 99.6869 89.9552 99.8701 90.2673 100.136C90.5888 100.4 90.8563 100.748 91.0699 101.179C91.2914 101.6 91.4444 102.101 91.5291 102.683L91.5956 103.14L86.5249 103.878ZM89.7517 102.135C89.6713 101.647 89.4631 101.286 89.1273 101.052C88.7901 100.808 88.3582 100.725 87.8318 100.801C87.333 100.874 86.9567 101.075 86.7028 101.404C86.4581 101.732 86.3384 102.141 86.3436 102.631L89.7517 102.135ZM91.6815 99.138L93.4964 98.874L95.9468 103.271L95.9745 103.267L97.0846 98.352L98.7887 98.1042L97.1375 105.135L95.3642 105.393L91.6815 99.138ZM99.9173 101.335C99.8407 100.809 99.8639 100.32 99.9868 99.8681C100.118 99.4058 100.323 98.9987 100.601 98.6469C100.88 98.2951 101.229 98.0038 101.649 97.7731C102.068 97.5423 102.527 97.3907 103.025 97.3181C103.524 97.2456 104.007 97.2602 104.475 97.362C104.942 97.4637 105.36 97.6435 105.728 97.9013C106.095 98.159 106.403 98.4915 106.651 98.8988C106.906 99.2954 107.073 99.757 107.149 100.283C107.226 100.81 107.199 101.304 107.068 101.767C106.945 102.218 106.744 102.62 106.465 102.972C106.186 103.324 105.837 103.615 105.418 103.846C104.999 104.076 104.54 104.228 104.041 104.301C103.542 104.373 103.059 104.359 102.592 104.257C102.124 104.155 101.707 103.975 101.339 103.718C100.971 103.46 100.66 103.133 100.404 102.736C100.156 102.329 99.9939 101.862 99.9173 101.335ZM101.58 101.094C101.617 101.352 101.695 101.595 101.813 101.824C101.941 102.05 102.101 102.244 102.294 102.404C102.496 102.564 102.726 102.681 102.982 102.757C103.238 102.833 103.519 102.849 103.823 102.804C104.128 102.76 104.393 102.665 104.617 102.519C104.841 102.373 105.022 102.196 105.162 101.987C105.31 101.777 105.409 101.546 105.457 101.294C105.514 101.04 105.524 100.784 105.487 100.525C105.449 100.267 105.367 100.024 105.239 99.7973C105.121 99.5692 104.961 99.3756 104.759 99.2164C104.566 99.0559 104.341 98.9376 104.085 98.8617C103.828 98.7858 103.548 98.7701 103.243 98.8144C102.938 98.8587 102.674 98.9538 102.45 99.0995C102.226 99.2453 102.04 99.4233 101.891 99.6336C101.752 99.8425 101.653 100.074 101.596 100.327C101.547 100.58 101.542 100.835 101.58 101.094ZM108.25 96.728L109.912 96.4862L110.88 103.136L109.217 103.378L108.25 96.728ZM107.686 94.504C107.647 94.2362 107.71 93.9911 107.876 93.769C108.05 93.5362 108.289 93.3977 108.594 93.3534C108.898 93.309 109.167 93.3691 109.398 93.5335C109.637 93.6873 109.778 93.9073 109.819 94.1937C109.861 94.48 109.79 94.7356 109.606 94.9604C109.429 95.1747 109.189 95.304 108.884 95.3484C108.579 95.3927 108.311 95.3327 108.08 95.1683C107.856 94.9933 107.725 94.7719 107.686 94.504ZM111.821 96.2085L113.483 95.9667L113.637 97.0196L113.664 97.0156C113.793 96.6008 114.012 96.2624 114.323 96.0002C114.634 95.7381 115.011 95.5748 115.454 95.5103C115.556 95.4955 115.654 95.4906 115.749 95.4957C115.854 95.4994 115.958 95.5077 116.064 95.5206L116.298 97.1277C116.154 97.1109 116.011 97.1033 115.87 97.105C115.737 97.0961 115.606 97.1011 115.476 97.1199C115.088 97.1763 114.785 97.2959 114.566 97.4786C114.356 97.6507 114.199 97.8385 114.097 98.0421C114.003 98.2443 113.947 98.4411 113.928 98.6325C113.918 98.8226 113.919 98.9638 113.933 99.0562L114.451 102.617L112.788 102.859L111.821 96.2085ZM123.895 93.1791L122.3 95.1512L121.163 94.1423L123.769 91.245L125.279 91.0254L126.706 100.834L125.043 101.076L123.895 93.1791ZM139.416 90.497L135.467 91.0713L135.71 93.0308C135.833 92.9658 135.99 92.91 136.181 92.8633C136.381 92.8153 136.569 92.7785 136.745 92.753C137.225 92.6831 137.675 92.6978 138.095 92.7971C138.523 92.8857 138.901 93.0524 139.229 93.2971C139.557 93.5417 139.828 93.8512 140.043 94.2255C140.267 94.5985 140.415 95.0344 140.488 95.5331C140.565 96.0596 140.541 96.5487 140.418 97.0004C140.303 97.4416 140.106 97.8334 139.826 98.176C139.553 98.508 139.211 98.7841 138.8 99.0042C138.389 99.2244 137.934 99.3708 137.435 99.4433C136.65 99.5575 135.953 99.4702 135.346 99.1813C134.747 98.8912 134.277 98.3842 133.936 97.6604L135.613 96.9354C135.775 97.2703 136.005 97.5198 136.302 97.6841C136.599 97.8483 136.961 97.8995 137.385 97.8377C137.635 97.8015 137.855 97.727 138.046 97.6143C138.246 97.5003 138.41 97.3586 138.536 97.1893C138.67 97.0095 138.764 96.8119 138.818 96.5966C138.871 96.3813 138.881 96.1536 138.846 95.9135C138.796 95.5718 138.689 95.2902 138.525 95.0689C138.37 94.8462 138.175 94.6764 137.941 94.5596C137.706 94.4334 137.445 94.3582 137.159 94.3339C136.871 94.3003 136.575 94.3057 136.27 94.35C135.91 94.4024 135.555 94.4963 135.207 94.6319C134.868 94.766 134.562 94.9285 134.288 95.1193L133.615 89.8129L139.198 89.0007L139.416 90.497ZM141.668 93.6496C141.555 92.8738 141.519 92.2047 141.56 91.6423C141.609 91.0693 141.708 90.5833 141.857 90.1843C142.006 89.7761 142.188 89.443 142.405 89.185C142.63 88.9165 142.864 88.708 143.107 88.5596C143.357 88.4006 143.6 88.2851 143.834 88.2132C144.078 88.14 144.293 88.09 144.477 88.0631C144.662 88.0362 144.877 88.0238 145.123 88.0258C145.378 88.0265 145.643 88.068 145.919 88.1505C146.203 88.2224 146.486 88.3556 146.769 88.5503C147.06 88.7343 147.335 89.0009 147.593 89.35C147.85 89.6899 148.079 90.1282 148.28 90.6649C148.488 91.191 148.649 91.842 148.762 92.6178C148.875 93.3937 148.907 94.0681 148.858 94.6411C148.817 95.2035 148.723 95.6888 148.575 96.097C148.425 96.496 148.238 96.8298 148.013 97.0983C147.796 97.3562 147.562 97.5647 147.312 97.7238C147.069 97.8722 146.826 97.983 146.582 98.0563C146.347 98.1281 146.137 98.1775 145.953 98.2044C145.768 98.2312 145.548 98.2443 145.293 98.2437C145.048 98.2417 144.783 98.2047 144.499 98.1328C144.223 98.0504 143.94 97.9171 143.649 97.7331C143.366 97.5385 143.096 97.2712 142.839 96.9313C142.581 96.5822 142.347 96.1446 142.139 95.6184C141.938 95.0817 141.781 94.4255 141.668 93.6496ZM143.331 93.4078C143.375 93.7126 143.445 94.0655 143.541 94.4665C143.645 94.8569 143.788 95.2229 143.97 95.5643C144.152 95.9057 144.385 96.1829 144.671 96.396C144.957 96.6091 145.307 96.6854 145.723 96.625C146.138 96.5645 146.453 96.3915 146.666 96.1058C146.879 95.8202 147.024 95.4879 147.101 95.1088C147.178 94.7298 147.206 94.339 147.185 93.9365C147.172 93.5234 147.143 93.1645 147.099 92.8597C147.055 92.5549 146.981 92.2073 146.877 91.8168C146.781 91.4158 146.642 91.0446 146.46 90.7032C146.278 90.3618 146.045 90.0845 145.759 89.8714C145.473 89.6583 145.123 89.582 144.707 89.6425C144.292 89.7029 143.977 89.876 143.764 90.1616C143.551 90.4473 143.406 90.7796 143.329 91.1586C143.252 91.5376 143.22 91.9337 143.233 92.3468C143.254 92.7493 143.286 93.103 143.331 93.4078ZM149.867 92.457C149.754 91.6812 149.718 91.0121 149.759 90.4497C149.808 89.8767 149.907 89.3907 150.056 88.9917C150.204 88.5835 150.387 88.2504 150.604 87.9925C150.829 87.7239 151.063 87.5155 151.306 87.367C151.556 87.208 151.798 87.0925 152.033 87.0206C152.277 86.9474 152.492 86.8974 152.676 86.8705C152.861 86.8436 153.076 86.8312 153.322 86.8332C153.576 86.8339 153.842 86.8755 154.118 86.9579C154.402 87.0298 154.685 87.163 154.968 87.3577C155.259 87.5417 155.534 87.8083 155.792 88.1574C156.049 88.4973 156.278 88.9356 156.478 89.4723C156.687 89.9985 156.848 90.6494 156.961 91.4253C157.073 92.2011 157.105 92.8755 157.057 93.4485C157.016 94.0109 156.922 94.4962 156.773 94.9044C156.624 95.3034 156.437 95.6372 156.212 95.9057C155.995 96.1637 155.761 96.3721 155.51 96.5312C155.268 96.6796 155.025 96.7905 154.781 96.8637C154.546 96.9356 154.336 96.9849 154.151 97.0118C153.967 97.0387 153.747 97.0518 153.492 97.0511C153.247 97.0491 152.982 97.0121 152.698 96.9403C152.422 96.8578 152.138 96.7246 151.848 96.5405C151.565 96.3459 151.295 96.0786 151.038 95.7387C150.779 95.3896 150.546 94.952 150.337 94.4259C150.137 93.8891 149.98 93.2329 149.867 92.457ZM151.53 92.2152C151.574 92.52 151.644 92.8729 151.74 93.2739C151.844 93.6644 151.987 94.0303 152.169 94.3717C152.35 94.7131 152.584 94.9903 152.87 95.2034C153.155 95.4165 153.506 95.4929 153.922 95.4324C154.337 95.372 154.652 95.1989 154.865 94.9133C155.078 94.6276 155.223 94.2953 155.3 93.9163C155.377 93.5372 155.405 93.1465 155.384 92.7439C155.371 92.3308 155.342 91.9719 155.298 91.6671C155.254 91.3623 155.18 91.0147 155.076 90.6242C154.98 90.2232 154.841 89.852 154.659 89.5106C154.477 89.1692 154.244 88.892 153.958 88.6789C153.672 88.4658 153.322 88.3894 152.906 88.4499C152.49 88.5104 152.176 88.6834 151.963 88.9691C151.75 89.2547 151.605 89.587 151.528 89.9661C151.451 90.3451 151.419 90.7411 151.432 91.1542C151.453 91.5568 151.485 91.9104 151.53 92.2152ZM161.992 85.6852L168.324 84.7643L168.554 86.3436L163.968 87.0107L164.343 89.5875L168.665 88.9588L168.895 90.5382L164.572 91.1669L165.165 95.2401L163.419 95.494L161.992 85.6852ZM179.189 88.4467C178.965 88.2717 178.738 88.1396 178.509 88.0505C178.279 87.9613 178.053 87.9328 177.831 87.9651C177.526 88.0094 177.262 88.1045 177.038 88.2502C176.814 88.396 176.628 88.574 176.479 88.7842C176.34 88.9932 176.241 89.2244 176.184 89.478C176.136 89.7302 176.13 89.9856 176.168 90.2442C176.206 90.5028 176.283 90.7462 176.401 90.9742C176.529 91.2009 176.689 91.3945 176.882 91.5551C177.084 91.7143 177.314 91.8318 177.57 91.9077C177.826 91.9836 178.107 91.9994 178.412 91.9551C178.67 91.9175 178.903 91.8318 179.11 91.6979C179.315 91.5548 179.482 91.3703 179.609 91.1442L180.891 92.1745C180.749 92.3649 180.576 92.5363 180.372 92.6886C180.177 92.8396 179.974 92.9681 179.763 93.0743C179.552 93.1804 179.347 93.2621 179.148 93.3194C178.95 93.3859 178.777 93.4299 178.629 93.4513C178.13 93.5239 177.647 93.5093 177.18 93.4075C176.712 93.3058 176.295 93.126 175.927 92.8682C175.56 92.6104 175.248 92.2832 174.992 91.8866C174.744 91.4794 174.582 91.0125 174.505 90.4861C174.429 89.9596 174.452 89.4705 174.575 89.0188C174.706 88.5565 174.911 88.1494 175.19 87.7976C175.469 87.4458 175.818 87.1545 176.237 86.9238C176.656 86.693 177.115 86.5414 177.614 86.4688C178.038 86.407 178.475 86.4284 178.924 86.5328C179.381 86.6267 179.797 86.8256 180.171 87.1295L179.189 88.4467ZM181.839 87.467L180.468 87.6665L180.262 86.2534L181.634 86.0539L181.497 85.1118C181.429 84.65 181.401 84.2296 181.412 83.8508C181.422 83.4627 181.495 83.122 181.631 82.8286C181.777 82.5339 182.002 82.2937 182.305 82.1082C182.606 81.9134 183.016 81.7784 183.533 81.7031C183.912 81.648 184.267 81.6293 184.6 81.647L184.695 83.0762C184.571 83.066 184.452 83.0597 184.338 83.0573C184.225 83.055 184.108 83.0625 183.988 83.08C183.757 83.1136 183.578 83.1774 183.45 83.2714C183.322 83.3655 183.226 83.4832 183.162 83.6246C183.105 83.7554 183.075 83.9059 183.072 84.0762C183.078 84.2452 183.094 84.422 183.121 84.6067L183.296 85.812L184.834 85.5884L185.039 87.0015L183.502 87.2252L184.263 92.4621L182.601 92.7039L181.839 87.467ZM190.899 90.5631L190.857 90.5692C190.672 90.9828 190.408 91.3042 190.064 91.5334C189.719 91.7534 189.324 91.8957 188.881 91.9601C188.576 92.0045 188.27 92.0066 187.962 91.9664C187.664 91.925 187.387 91.8379 187.132 91.7052C186.886 91.5712 186.676 91.3896 186.501 91.1604C186.326 90.9312 186.215 90.6503 186.166 90.3178C186.114 89.9576 186.134 89.6434 186.227 89.3752C186.319 89.0978 186.459 88.8605 186.647 88.6634C186.843 88.4556 187.077 88.2801 187.349 88.1369C187.62 87.9936 187.905 87.8768 188.203 87.7863C188.509 87.6852 188.819 87.6072 189.131 87.5522C189.443 87.4881 189.737 87.4359 190.014 87.3956L190.43 87.3351L190.403 87.155C190.343 86.7394 190.155 86.4508 189.839 86.2892C189.522 86.1185 189.141 86.0653 188.698 86.1298C188.347 86.1808 188.029 86.2932 187.743 86.4668C187.455 86.6312 187.216 86.8358 187.025 87.0804L186.026 86.3346C186.34 85.9022 186.73 85.5672 187.195 85.3298C187.67 85.091 188.17 84.9333 188.697 84.8567C189.168 84.7882 189.573 84.7858 189.912 84.8497C190.25 84.9042 190.538 84.9992 190.774 85.1346C191.011 85.2699 191.201 85.4404 191.344 85.6459C191.495 85.8409 191.61 86.0458 191.688 86.2608C191.776 86.4744 191.84 86.6867 191.88 86.8978C191.918 87.0997 191.949 87.2791 191.972 87.4361L192.528 91.2599L191.032 91.4775L190.899 90.5631ZM190.502 88.513L190.155 88.5633C189.925 88.5969 189.667 88.6438 189.384 88.7039C189.1 88.764 188.834 88.8498 188.586 88.9613C188.346 89.0623 188.149 89.1948 187.993 89.3588C187.837 89.5137 187.776 89.7111 187.811 89.9513C187.834 90.1083 187.885 90.2375 187.966 90.339C188.055 90.4298 188.16 90.5041 188.282 90.5619C188.403 90.6196 188.536 90.6569 188.68 90.6737C188.822 90.6813 188.963 90.675 189.102 90.6548C189.674 90.5715 190.075 90.3765 190.304 90.0697C190.541 89.7523 190.625 89.3581 190.556 88.887L190.502 88.513ZM203.536 88.6401L203.508 88.6442C203.327 89.0855 203.047 89.4281 202.667 89.6719C202.288 89.9157 201.863 90.0719 201.392 90.1404C200.874 90.2157 200.4 90.1951 199.968 90.0787C199.544 89.9518 199.166 89.7521 198.834 89.4797C198.502 89.2073 198.231 88.8695 198.021 88.4661C197.812 88.0627 197.672 87.6163 197.6 87.1268C197.529 86.6372 197.541 86.1686 197.636 85.7209C197.732 85.2732 197.895 84.8722 198.126 84.5179C198.367 84.1622 198.673 83.8677 199.045 83.6345C199.415 83.392 199.836 83.2365 200.307 83.168C200.621 83.1223 200.902 83.1143 201.152 83.144C201.402 83.1738 201.626 83.226 201.826 83.3007C202.025 83.3755 202.198 83.4634 202.345 83.5647C202.49 83.6567 202.613 83.7521 202.712 83.8509L202.754 83.8448L202.074 79.1759L203.737 78.9341L205.26 89.4079L203.681 89.6376L203.536 88.6401ZM199.263 86.8849C199.3 87.1436 199.378 87.3869 199.496 87.6149C199.624 87.8416 199.784 88.0353 199.977 88.1958C200.179 88.355 200.409 88.4725 200.665 88.5485C200.921 88.6244 201.202 88.6401 201.506 88.5958C201.811 88.5515 202.076 88.4564 202.3 88.3107C202.524 88.1649 202.705 87.9876 202.845 87.7787C202.993 87.5684 203.092 87.3372 203.14 87.0849C203.197 86.8314 203.207 86.5753 203.17 86.3167C203.132 86.058 203.05 85.8154 202.922 85.5887C202.804 85.3606 202.644 85.167 202.442 85.0078C202.249 84.8473 202.024 84.7291 201.768 84.6531C201.511 84.5772 201.231 84.5615 200.926 84.6058C200.621 84.6501 200.357 84.7452 200.133 84.8909C199.909 85.0367 199.723 85.2147 199.574 85.425C199.435 85.6339 199.336 85.8651 199.279 86.1187C199.23 86.3709 199.225 86.6263 199.263 86.8849ZM208.074 86.1975C208.202 86.6882 208.452 87.0479 208.825 87.2766C209.198 87.5053 209.62 87.5854 210.091 87.5169C210.507 87.4565 210.841 87.323 211.094 87.1164C211.354 86.8993 211.572 86.6459 211.747 86.3564L213.07 87.0836C212.751 87.6204 212.367 88.0252 211.916 88.2983C211.466 88.5713 210.977 88.7462 210.451 88.8227C209.952 88.8953 209.469 88.8807 209.001 88.7789C208.534 88.6771 208.116 88.4974 207.749 88.2396C207.381 87.9818 207.069 87.6546 206.813 87.258C206.566 86.8507 206.403 86.3839 206.327 85.8574C206.25 85.331 206.273 84.8419 206.396 84.3901C206.527 83.9278 206.732 83.5208 207.011 83.169C207.29 82.8171 207.639 82.5259 208.058 82.2951C208.477 82.0644 208.936 81.9128 209.435 81.8402C209.897 81.773 210.329 81.795 210.732 81.9062C211.143 82.0068 211.504 82.19 211.816 82.4558C212.138 82.7203 212.405 83.0681 212.619 83.4992C212.84 83.9197 212.993 84.4209 213.078 85.0027L213.145 85.4599L208.074 86.1975ZM211.301 84.4549C211.22 83.9667 211.012 83.6056 210.676 83.3715C210.339 83.1281 209.907 83.0448 209.381 83.1213C208.882 83.1939 208.506 83.3948 208.252 83.7241C208.007 84.0521 207.887 84.4609 207.893 84.9506L211.301 84.4549ZM120.114 110.977L123.938 110.42C124.307 110.367 124.679 110.36 125.052 110.4C125.425 110.431 125.764 110.527 126.071 110.69C126.385 110.843 126.653 111.063 126.874 111.351C127.095 111.64 127.238 112.006 127.303 112.449C127.383 113.003 127.293 113.483 127.031 113.889C126.769 114.295 126.396 114.614 125.911 114.844L125.915 114.872C126.225 114.865 126.52 114.912 126.798 115.012C127.085 115.103 127.336 115.241 127.552 115.426C127.766 115.603 127.944 115.822 128.086 116.084C128.236 116.336 128.334 116.619 128.379 116.933C128.457 117.469 128.416 117.932 128.256 118.323C128.095 118.705 127.855 119.032 127.536 119.305C127.225 119.567 126.85 119.777 126.411 119.936C125.981 120.092 125.535 120.204 125.073 120.272L121.541 120.785L120.114 110.977ZM122.44 114.713L124.033 114.481C124.615 114.396 125.033 114.222 125.287 113.959C125.549 113.685 125.653 113.364 125.599 112.994C125.538 112.569 125.339 112.277 125.005 112.118C124.679 111.949 124.183 111.913 123.518 112.009L122.077 112.219L122.44 114.713ZM123.069 119.035L124.676 118.801C124.897 118.769 125.131 118.721 125.376 118.657C125.631 118.592 125.857 118.493 126.055 118.36C126.252 118.228 126.407 118.059 126.518 117.854C126.629 117.64 126.66 117.372 126.613 117.048C126.538 116.531 126.315 116.196 125.944 116.042C125.582 115.887 125.045 115.862 124.334 115.965L122.657 116.209L123.069 119.035ZM129.556 116.224C129.479 115.698 129.502 115.209 129.625 114.757C129.756 114.295 129.961 113.888 130.24 113.536C130.519 113.184 130.868 112.893 131.287 112.662C131.706 112.431 132.165 112.28 132.664 112.207C133.162 112.134 133.646 112.149 134.113 112.251C134.581 112.353 134.998 112.532 135.366 112.79C135.733 113.048 136.041 113.38 136.289 113.788C136.545 114.184 136.711 114.646 136.788 115.172C136.864 115.699 136.837 116.193 136.706 116.655C136.583 117.107 136.382 117.509 136.103 117.861C135.824 118.213 135.475 118.504 135.056 118.735C134.637 118.965 134.178 119.117 133.679 119.19C133.181 119.262 132.697 119.247 132.23 119.146C131.762 119.044 131.345 118.864 130.977 118.606C130.61 118.349 130.298 118.021 130.042 117.625C129.794 117.218 129.632 116.751 129.556 116.224ZM131.218 115.982C131.256 116.241 131.334 116.484 131.452 116.712C131.579 116.939 131.739 117.133 131.932 117.293C132.135 117.452 132.364 117.57 132.62 117.646C132.876 117.722 133.157 117.738 133.462 117.693C133.767 117.649 134.031 117.554 134.255 117.408C134.479 117.262 134.661 117.085 134.8 116.876C134.949 116.666 135.047 116.435 135.095 116.182C135.153 115.929 135.163 115.673 135.125 115.414C135.087 115.156 135.005 114.913 134.878 114.686C134.76 114.458 134.599 114.264 134.397 114.105C134.204 113.945 133.979 113.827 133.723 113.751C133.467 113.675 133.186 113.659 132.881 113.703C132.577 113.748 132.312 113.843 132.088 113.988C131.864 114.134 131.678 114.312 131.529 114.522C131.39 114.731 131.291 114.963 131.234 115.216C131.186 115.468 131.18 115.724 131.218 115.982ZM137.86 111.621L139.44 111.391L139.595 112.458L139.623 112.454C139.731 112.099 139.93 111.777 140.218 111.49C140.505 111.194 140.926 111.005 141.48 110.925C141.923 110.86 142.308 110.88 142.634 110.983C142.97 111.085 143.252 111.242 143.481 111.454C143.71 111.666 143.889 111.923 144.017 112.225C144.146 112.527 144.236 112.849 144.285 113.19L144.896 117.388L143.233 117.63L142.744 114.264C142.717 114.079 142.678 113.877 142.627 113.658C142.575 113.43 142.494 113.225 142.382 113.043C142.279 112.85 142.134 112.702 141.949 112.596C141.763 112.482 141.527 112.446 141.24 112.487C140.963 112.528 140.734 112.608 140.554 112.729C140.383 112.848 140.244 112.995 140.137 113.171C140.04 113.346 139.979 113.539 139.953 113.75C139.927 113.961 139.93 114.178 139.962 114.399L140.49 118.029L138.828 118.271L137.86 111.621ZM152.851 116.231L151.272 116.461L151.117 115.394L151.089 115.398C150.98 115.753 150.782 116.079 150.495 116.376C150.207 116.663 149.786 116.847 149.232 116.927C148.788 116.992 148.4 116.978 148.065 116.885C147.739 116.781 147.462 116.624 147.233 116.412C147.002 116.191 146.823 115.929 146.694 115.627C146.565 115.325 146.476 115.003 146.426 114.662L145.816 110.464L147.478 110.222L147.968 113.588C147.995 113.773 148.034 113.98 148.086 114.208C148.137 114.427 148.214 114.633 148.318 114.825C148.429 115.007 148.573 115.156 148.75 115.271C148.935 115.377 149.176 115.408 149.471 115.365C149.748 115.324 149.973 115.245 150.144 115.125C150.324 115.005 150.463 114.857 150.56 114.683C150.667 114.507 150.733 114.313 150.759 114.102C150.785 113.891 150.782 113.674 150.749 113.453L150.221 109.823L151.884 109.581L152.851 116.231ZM157.586 110.633C157.197 110.228 156.73 110.065 156.185 110.144C155.963 110.176 155.754 110.263 155.558 110.405C155.361 110.547 155.281 110.742 155.318 110.991C155.347 111.195 155.457 111.33 155.645 111.397C155.834 111.463 156.067 111.51 156.345 111.535C156.622 111.561 156.918 111.589 157.234 111.618C157.557 111.637 157.864 111.701 158.153 111.81C158.441 111.909 158.691 112.071 158.903 112.295C159.114 112.519 159.252 112.848 159.315 113.282C159.373 113.679 159.334 114.029 159.199 114.332C159.072 114.624 158.882 114.873 158.629 115.079C158.385 115.285 158.098 115.449 157.767 115.573C157.436 115.696 157.099 115.783 156.758 115.833C156.24 115.908 155.754 115.903 155.298 115.819C154.843 115.734 154.416 115.522 154.018 115.184L154.975 113.984C155.222 114.193 155.477 114.359 155.74 114.481C156.011 114.593 156.322 114.623 156.673 114.572C156.793 114.554 156.916 114.522 157.041 114.476C157.166 114.429 157.28 114.366 157.381 114.285C157.483 114.204 157.559 114.113 157.61 114.011C157.669 113.899 157.689 113.778 157.671 113.648C157.637 113.418 157.524 113.259 157.333 113.174C157.141 113.089 156.907 113.033 156.63 113.008C156.351 112.973 156.051 112.95 155.729 112.941C155.414 112.92 155.114 112.865 154.827 112.775C154.539 112.675 154.29 112.518 154.08 112.303C153.869 112.089 153.733 111.769 153.671 111.344C153.618 110.975 153.645 110.645 153.754 110.356C153.871 110.056 154.041 109.8 154.265 109.588C154.489 109.377 154.756 109.206 155.067 109.076C155.379 108.945 155.7 108.856 156.033 108.808C156.476 108.743 156.926 108.758 157.383 108.852C157.839 108.937 158.227 109.144 158.549 109.475L157.586 110.633ZM160.753 114.091C160.71 113.796 160.78 113.526 160.961 113.283C161.152 113.038 161.4 112.894 161.704 112.85C162 112.807 162.273 112.871 162.525 113.041C162.776 113.212 162.923 113.446 162.966 113.741C163.009 114.037 162.935 114.307 162.744 114.552C162.563 114.795 162.32 114.939 162.015 114.983C161.867 115.005 161.72 114.998 161.573 114.962C161.436 114.926 161.31 114.869 161.195 114.791C161.08 114.714 160.98 114.615 160.897 114.495C160.823 114.374 160.775 114.239 160.753 114.091Z" fill="white"/>
</svg>
