<svg width="51" height="51" viewBox="0 0 51 51" fill="none" xmlns="http://www.w3.org/2000/svg">
<circle cx="25.5" cy="25.5" r="25.5" fill="#F0F1F1"/>
<mask id="path-2-inside-1_3_473" fill="white">
<path d="M17.6612 14.3214C16.586 14.6286 15.9205 15.6411 16.0285 16.8188C16.1651 18.2979 17.5417 19.5836 19.3168 19.8908C20.3862 20.0785 22.4855 20.2662 23.5038 20.2662C23.9248 20.2662 24.0671 20.289 24.2149 20.3799L24.3968 20.4879L21.0745 20.505L18.0645 20.5204C17.8553 20.5214 17.6491 20.5707 17.462 20.6643C17.098 20.8407 16.7567 21.182 16.5803 21.5461C16.4867 21.7331 16.438 21.9394 16.438 22.1485V29.1409V36.1333C16.438 36.3424 16.4867 36.5487 16.5803 36.7357C16.7567 37.0998 17.098 37.441 17.462 37.6174C17.6491 37.711 17.8553 37.7598 18.0645 37.7598H25.0568H32.0492C32.2584 37.7598 32.4646 37.711 32.6516 37.6174C33.0157 37.441 33.357 37.0998 33.5334 36.7357C33.627 36.5487 33.6757 36.3424 33.6757 36.1333V29.1409V22.1485C33.6757 21.9394 33.627 21.7331 33.5334 21.5461C33.357 21.182 33.0157 20.8407 32.6516 20.6643C32.4646 20.5707 32.2584 20.5214 32.0492 20.5204L29.0392 20.505L25.7168 20.4879L25.8988 20.3799C26.0468 20.289 26.1889 20.2662 26.6384 20.2662C27.7876 20.2662 29.8072 20.0727 30.82 19.8622C32.3389 19.555 33.5507 18.565 33.9035 17.342C33.9774 17.0974 33.9944 16.8584 33.9774 16.4602C33.9604 15.9937 33.9318 15.8571 33.7782 15.5386C33.4768 14.8844 33.0102 14.4975 32.3161 14.3156C31.8952 14.2018 31.1384 14.2189 30.5982 14.3497C29.2955 14.6626 28.334 15.3908 26.9459 17.1373C26.2804 17.9679 26.2633 17.985 26.1666 17.877C25.9619 17.6552 25.4668 17.456 25.0914 17.456C24.6647 17.456 24.3916 17.547 24.056 17.7973C23.9195 17.9053 23.7944 17.9907 23.7829 17.9907C23.7659 17.9907 23.4757 17.6379 23.1344 17.2057C22.0705 15.8574 21.513 15.3284 20.6312 14.822C19.96 14.4409 19.4082 14.2873 18.6287 14.2587C18.1561 14.2417 17.8888 14.2587 17.6612 14.3214ZM19.186 15.2031C20.3408 15.5216 21.052 16.0849 22.406 17.7574C22.844 18.3037 23.265 18.8156 23.3334 18.8953C23.4016 18.975 23.4584 19.1115 23.4642 19.1967C23.4642 19.3446 23.4472 19.3561 23.2252 19.3561C22.4173 19.3561 20.1702 19.1343 19.3964 18.9805C18.8161 18.8667 18.0025 18.4798 17.6159 18.1328C16.8935 17.4843 16.7171 16.3863 17.212 15.6354C17.5645 15.1122 18.2814 14.9528 19.186 15.2031ZM32.1911 15.1578C32.5153 15.2545 32.8681 15.6243 32.9932 15.9997C33.1355 16.4322 33.0899 17.126 32.8964 17.5074C32.6291 18.0308 31.9976 18.5314 31.258 18.8046C30.6493 19.0321 29.0848 19.2483 27.4064 19.3338L26.6497 19.3736V19.1689C26.6497 18.9925 26.7577 18.8331 27.4861 17.923C28.7435 16.3642 29.3293 15.8238 30.2168 15.4198C30.8996 15.1122 31.6847 15.0097 32.1911 15.1578ZM25.3129 18.4117C25.5404 18.5084 25.7396 18.7986 25.7396 19.0318C25.7396 19.3959 25.4324 19.6974 25.0568 19.6974C24.6815 19.6974 24.3743 19.3959 24.3743 19.0318C24.3743 18.8043 24.5735 18.5084 24.7895 18.4174C25.0228 18.315 25.0739 18.315 25.3129 18.4117ZM24.6018 23.9072V26.4104H20.9608H17.32V24.2828C17.32 22.0698 17.3312 21.9502 17.5645 21.6944C17.8319 21.4042 17.8036 21.41 21.3193 21.4042H24.6018V23.9072ZM32.373 21.5521C32.4584 21.6147 32.5835 21.7398 32.6461 21.8252C32.7599 21.973 32.7656 22.0585 32.7827 24.1976L32.7997 26.4106H29.1532H25.5121V23.9072V21.404L28.863 21.4153C32.1512 21.4326 32.2194 21.4326 32.373 21.5521ZM24.6018 32.0994V36.878L21.2509 36.8667C17.9627 36.8497 17.8945 36.8497 17.7409 36.7302C17.6555 36.6675 17.5304 36.5425 17.4678 36.457C17.3483 36.3034 17.3483 36.2466 17.3312 31.8092L17.32 27.3205H20.961H24.6018V32.0994ZM32.7827 31.8094C32.7656 36.2468 32.7656 36.3037 32.6461 36.4573C32.5835 36.5427 32.4584 36.6678 32.373 36.7304C32.2194 36.8499 32.1512 36.8499 28.863 36.867L25.5121 36.8782V32.0996V27.3207H29.1532H32.7942L32.7827 31.8094Z"/>
</mask>
<path d="M17.6612 14.3214C16.586 14.6286 15.9205 15.6411 16.0285 16.8188C16.1651 18.2979 17.5417 19.5836 19.3168 19.8908C20.3862 20.0785 22.4855 20.2662 23.5038 20.2662C23.9248 20.2662 24.0671 20.289 24.2149 20.3799L24.3968 20.4879L21.0745 20.505L18.0645 20.5204C17.8553 20.5214 17.6491 20.5707 17.462 20.6643C17.098 20.8407 16.7567 21.182 16.5803 21.5461C16.4867 21.7331 16.438 21.9394 16.438 22.1485V29.1409V36.1333C16.438 36.3424 16.4867 36.5487 16.5803 36.7357C16.7567 37.0998 17.098 37.441 17.462 37.6174C17.6491 37.711 17.8553 37.7598 18.0645 37.7598H25.0568H32.0492C32.2584 37.7598 32.4646 37.711 32.6516 37.6174C33.0157 37.441 33.357 37.0998 33.5334 36.7357C33.627 36.5487 33.6757 36.3424 33.6757 36.1333V29.1409V22.1485C33.6757 21.9394 33.627 21.7331 33.5334 21.5461C33.357 21.182 33.0157 20.8407 32.6516 20.6643C32.4646 20.5707 32.2584 20.5214 32.0492 20.5204L29.0392 20.505L25.7168 20.4879L25.8988 20.3799C26.0468 20.289 26.1889 20.2662 26.6384 20.2662C27.7876 20.2662 29.8072 20.0727 30.82 19.8622C32.3389 19.555 33.5507 18.565 33.9035 17.342C33.9774 17.0974 33.9944 16.8584 33.9774 16.4602C33.9604 15.9937 33.9318 15.8571 33.7782 15.5386C33.4768 14.8844 33.0102 14.4975 32.3161 14.3156C31.8952 14.2018 31.1384 14.2189 30.5982 14.3497C29.2955 14.6626 28.334 15.3908 26.9459 17.1373C26.2804 17.9679 26.2633 17.985 26.1666 17.877C25.9619 17.6552 25.4668 17.456 25.0914 17.456C24.6647 17.456 24.3916 17.547 24.056 17.7973C23.9195 17.9053 23.7944 17.9907 23.7829 17.9907C23.7659 17.9907 23.4757 17.6379 23.1344 17.2057C22.0705 15.8574 21.513 15.3284 20.6312 14.822C19.96 14.4409 19.4082 14.2873 18.6287 14.2587C18.1561 14.2417 17.8888 14.2587 17.6612 14.3214ZM19.186 15.2031C20.3408 15.5216 21.052 16.0849 22.406 17.7574C22.844 18.3037 23.265 18.8156 23.3334 18.8953C23.4016 18.975 23.4584 19.1115 23.4642 19.1967C23.4642 19.3446 23.4472 19.3561 23.2252 19.3561C22.4173 19.3561 20.1702 19.1343 19.3964 18.9805C18.8161 18.8667 18.0025 18.4798 17.6159 18.1328C16.8935 17.4843 16.7171 16.3863 17.212 15.6354C17.5645 15.1122 18.2814 14.9528 19.186 15.2031ZM32.1911 15.1578C32.5153 15.2545 32.8681 15.6243 32.9932 15.9997C33.1355 16.4322 33.0899 17.126 32.8964 17.5074C32.6291 18.0308 31.9976 18.5314 31.258 18.8046C30.6493 19.0321 29.0848 19.2483 27.4064 19.3338L26.6497 19.3736V19.1689C26.6497 18.9925 26.7577 18.8331 27.4861 17.923C28.7435 16.3642 29.3293 15.8238 30.2168 15.4198C30.8996 15.1122 31.6847 15.0097 32.1911 15.1578ZM25.3129 18.4117C25.5404 18.5084 25.7396 18.7986 25.7396 19.0318C25.7396 19.3959 25.4324 19.6974 25.0568 19.6974C24.6815 19.6974 24.3743 19.3959 24.3743 19.0318C24.3743 18.8043 24.5735 18.5084 24.7895 18.4174C25.0228 18.315 25.0739 18.315 25.3129 18.4117ZM24.6018 23.9072V26.4104H20.9608H17.32V24.2828C17.32 22.0698 17.3312 21.9502 17.5645 21.6944C17.8319 21.4042 17.8036 21.41 21.3193 21.4042H24.6018V23.9072ZM32.373 21.5521C32.4584 21.6147 32.5835 21.7398 32.6461 21.8252C32.7599 21.973 32.7656 22.0585 32.7827 24.1976L32.7997 26.4106H29.1532H25.5121V23.9072V21.404L28.863 21.4153C32.1512 21.4326 32.2194 21.4326 32.373 21.5521ZM24.6018 32.0994V36.878L21.2509 36.8667C17.9627 36.8497 17.8945 36.8497 17.7409 36.7302C17.6555 36.6675 17.5304 36.5425 17.4678 36.457C17.3483 36.3034 17.3483 36.2466 17.3312 31.8092L17.32 27.3205H20.961H24.6018V32.0994ZM32.7827 31.8094C32.7656 36.2468 32.7656 36.3037 32.6461 36.4573C32.5835 36.5427 32.4584 36.6678 32.373 36.7304C32.2194 36.8499 32.1512 36.8499 28.863 36.867L25.5121 36.8782V32.0996V27.3207H29.1532H32.7942L32.7827 31.8094Z" fill="#525152" stroke="#525152" stroke-width="4" mask="url(#path-2-inside-1_3_473)"/>
</svg>
