<svg width="408" height="260" viewBox="0 0 408 260" fill="none" xmlns="http://www.w3.org/2000/svg">
<path d="M144.062 -2.28882e-05L144.062 50.5804C144.062 78.7983 121.201 101.674 93 101.674L93 51.0934C93 22.8755 115.862 -2.04228e-05 144.062 -2.28882e-05Z" fill="#AE5C24"/>
<path d="M306.375 157.184C306.375 100.837 352.098 55.1582 408.5 55.1582L408.5 157.184L306.375 157.184Z" fill="#F0F1F1"/>
<path d="M408.5 259.207L306.375 259.207C249.973 259.207 204.25 213.528 204.25 157.181L306.375 157.181C362.777 157.181 408.5 202.86 408.5 259.207Z" fill="#AE5C24"/>
<path d="M306.375 208.197L255.571 208.197C227.227 208.197 204.25 185.358 204.25 157.184L255.054 157.184C283.399 157.184 306.375 180.024 306.375 208.197Z" fill="#6ED47C"/>
<path d="M204.25 55.1555L204.25 157.181C204.25 213.528 158.527 259.207 102.125 259.207L102.125 157.181C102.125 100.835 147.848 55.1556 204.25 55.1555Z" fill="#6ED47C"/>
<path d="M306.375 106.171C306.375 134.344 283.513 157.184 255.312 157.184C227.112 157.184 204.25 134.344 204.25 106.171C204.25 77.9973 227.112 55.1578 255.312 55.1578C283.513 55.1578 306.375 77.9973 306.375 106.171Z" fill="#F09A38"/>
<path d="M283.485 106.701C283.485 122.341 270.792 135.021 255.136 135.021C239.48 135.021 226.788 122.341 226.788 106.701C226.788 91.0597 239.48 78.3796 255.136 78.3796C270.792 78.3796 283.485 91.0597 283.485 106.701Z" fill="#AE5C24"/>
<path d="M102.125 106.013C102.125 77.8394 79.2633 55 51.0625 55C22.8617 55 1.99669e-06 77.8395 4.45968e-06 106.013C6.92268e-06 134.186 22.8617 157.026 51.0625 157.026L102.125 157.026L102.125 106.013Z" fill="#FFC700"/>
<path d="M102.125 130.639C102.125 116.067 90.3001 104.254 75.7129 104.254C61.1266 104.254 49.3018 116.067 49.3018 130.639C49.3018 145.212 61.1266 157.026 75.7129 157.026L102.125 157.026L102.125 130.639Z" fill="#FFC700"/>
<path d="M51.4146 259.562C23.2138 259.562 0.352049 236.723 0.352046 208.55C0.352044 180.376 23.2137 157.537 51.4145 157.537C79.6153 157.537 102.477 180.376 102.477 208.55C102.477 236.723 79.6153 259.562 51.4146 259.562Z" fill="#F09A38"/>
<path d="M50.8865 236.695C35.2305 236.695 22.5381 224.015 22.5381 208.374C22.5381 192.734 35.2305 180.053 50.8865 180.053C66.5426 180.053 79.235 192.734 79.235 208.374C79.235 224.015 66.5426 236.695 50.8865 236.695Z" fill="#AE5C24"/>
</svg>
