<svg width="891" height="112" viewBox="0 0 891 112" fill="none" xmlns="http://www.w3.org/2000/svg">
<path d="M445.278 111.309C445.278 49.8364 495.161 0.00198902 556.693 0.00198364L556.693 111.309L445.278 111.309Z" fill="#F09A38"/>
<path d="M890.94 0.00198364C890.94 61.4747 841.057 111.309 779.524 111.309L779.524 0.00199338L890.94 0.00198364Z" fill="#F09A38"/>
<path d="M556.693 0.00199338C618.227 0.001988 668.108 49.8364 668.108 111.309L556.693 111.309L556.693 0.00199338Z" fill="#AE5C24"/>
<path d="M556.693 54.5041C588.097 54.5041 613.553 79.936 613.553 111.309L556.693 111.309L556.693 54.5041Z" fill="#6ED47C"/>
<path d="M723.817 0.387944L723.817 55.5692C723.817 86.3544 748.758 111.311 779.524 111.311L779.524 56.13C779.524 25.3436 754.583 0.387942 723.817 0.387944Z" fill="#FFC700"/>
<path d="M445.278 111.309L333.862 111.309C272.33 111.309 222.447 61.4747 222.447 0.00200312L333.862 0.00199338C395.395 0.001988 445.278 49.8364 445.278 111.309Z" fill="#AE5C24"/>
<path d="M333.862 55.6599L278.436 55.6599C247.514 55.6599 222.447 30.7427 222.447 0.00643369L277.873 0.00642884C308.796 0.00642614 333.862 24.9236 333.862 55.6599Z" fill="#6ED47C"/>
<path d="M166.739 0.385826L166.739 55.5676C166.739 86.3525 141.798 111.309 111.031 111.309L111.031 56.1273C111.031 25.3424 135.973 0.385829 166.739 0.385826Z" fill="#AE5C24"/>
<path d="M237.487 77.6918C237.487 96.1343 222.523 111.084 204.063 111.084C185.602 111.084 170.638 96.1343 170.638 77.6918C170.638 59.2493 185.602 44.2996 204.063 44.2996C222.523 44.2996 237.487 59.2493 237.487 77.6918Z" fill="#F09A38"/>
<path d="M220.583 77.501C220.583 86.7216 213.1 94.197 203.871 94.197C194.641 94.197 187.158 86.7216 187.158 77.501C187.158 68.2803 194.641 60.8049 203.871 60.8049C213.1 60.8049 220.583 68.2803 220.583 77.501Z" fill="#FFC700"/>
<path d="M460.261 28.4046C460.261 36.6719 453.553 43.3735 445.278 43.3735C437.002 43.3735 430.294 36.6719 430.294 28.4046C430.294 20.1374 437.002 13.4357 445.278 13.4357C453.553 13.4357 460.261 20.1374 460.261 28.4046Z" fill="#F09A38"/>
<path d="M55.7076 111.694C24.9413 111.694 -0.000124249 86.7764 -0.000126936 56.04C-0.000129623 25.3037 24.9413 0.386434 55.7076 0.386432C86.4739 0.386429 111.415 25.3036 111.415 56.04C111.415 86.7764 86.4739 111.694 55.7076 111.694Z" fill="#F09A38"/>
<path d="M55.1316 86.7461C38.0514 86.7461 24.2043 72.9125 24.2043 55.8488C24.2043 38.785 38.0513 24.9514 55.1316 24.9514C72.2119 24.9514 86.059 38.785 86.059 55.8488C86.059 72.9125 72.2119 86.7461 55.1316 86.7461Z" fill="#AE5C24"/>
</svg>
