<svg width="645" height="187" viewBox="0 0 645 187" fill="none" xmlns="http://www.w3.org/2000/svg">
<path d="M298.427 173.18C298.427 125.395 337.203 86.6572 385.034 86.6572L385.034 173.18L298.427 173.18Z" fill="#F09A38"/>
<path d="M385.035 0.133568C432.866 0.133564 471.642 38.8715 471.642 86.6562L385.035 86.6563L385.035 0.133568Z" fill="#F09A38"/>
<path d="M211.82 86.6574C211.82 38.8727 250.596 0.13477 298.427 0.134766L298.427 86.6574L211.82 86.6574Z" fill="#F0F1F1"/>
<path d="M644.854 86.6571C644.854 134.442 606.079 173.18 558.248 173.18L558.248 86.6571L644.854 86.6571Z" fill="#F09A38"/>
<path d="M385.034 86.6571C432.866 86.6571 471.641 125.395 471.641 173.18L385.034 173.18L385.034 86.6571Z" fill="#AE5C24"/>
<path d="M385.034 129.023C409.446 129.023 429.234 148.792 429.234 173.18L385.034 173.18L385.034 129.023Z" fill="#6ED47C"/>
<path d="M558.248 42.4998C582.659 42.4998 602.447 62.2689 602.447 86.6562L558.248 86.6563L558.248 42.4998Z" fill="#AE5C24"/>
<path d="M298.427 0.133568C346.259 0.133564 385.034 38.8715 385.034 86.6562L298.427 86.6563L298.427 0.133568Z" fill="#6ED47C"/>
<path d="M471.641 0.134773L471.641 86.6574C471.641 134.442 510.417 173.18 558.248 173.18L558.248 86.6574C558.248 38.8727 519.472 0.134769 471.641 0.134773Z" fill="#F0F1F1"/>
<path d="M514.945 86.9551L514.945 129.849C514.945 153.78 534.332 173.179 558.248 173.179L558.248 130.285C558.248 106.354 538.86 86.9551 514.945 86.9551Z" fill="#FFC700"/>
<path d="M298.427 173.18L211.82 173.18C163.989 173.18 125.213 134.442 125.213 86.6572L211.82 86.6572C259.651 86.6572 298.427 125.395 298.427 173.18Z" fill="#AE5C24"/>
<path d="M211.819 129.922L168.735 129.922C144.698 129.922 125.213 110.553 125.213 86.6606L168.297 86.6606C192.334 86.6606 211.819 106.03 211.819 129.922Z" fill="#6ED47C"/>
<path d="M125.213 0.13446L125.213 86.6571C125.213 134.442 86.4374 173.18 38.6061 173.18L38.6061 86.6571C38.6061 38.8724 77.3817 0.134465 125.213 0.13446Z" fill="#6ED47C"/>
<path d="M81.9094 86.9555L81.9094 129.85C81.9094 153.78 62.5216 173.18 38.606 173.18L38.606 130.285C38.606 106.355 57.9938 86.9555 81.9094 86.9555Z" fill="#AE5C24"/>
<path d="M137.756 173.33C137.756 180.498 131.939 186.309 124.765 186.309C117.59 186.309 111.774 180.498 111.774 173.33C111.774 166.163 117.59 160.352 124.765 160.352C131.939 160.352 137.756 166.163 137.756 173.33Z" fill="#FFC700"/>
<path d="M310.073 108.737C310.073 115.164 304.859 120.373 298.426 120.373C291.993 120.373 286.779 115.164 286.779 108.737C286.779 102.311 291.993 97.1014 298.426 97.1014C304.859 97.1014 310.073 102.311 310.073 108.737Z" fill="#F09A38"/>
<path d="M211.819 43.3949C211.819 67.2873 192.432 86.6563 168.516 86.6563C144.6 86.6563 125.213 67.2873 125.213 43.3949C125.213 19.5025 144.6 0.133566 168.516 0.133564C192.432 0.133562 211.819 19.5025 211.819 43.3949Z" fill="#F09A38"/>
<path d="M192.407 43.8438C192.407 57.108 181.643 67.8613 168.366 67.8613C155.089 67.8613 144.326 57.108 144.326 43.8438C144.326 30.5796 155.089 19.8263 168.366 19.8263C181.643 19.8263 192.407 30.5796 192.407 43.8438Z" fill="#AE5C24"/>
<path d="M38.6058 43.2613C38.6058 19.3689 19.218 -5.87647e-06 -4.69757 -3.7857e-06C-28.6132 -1.69494e-06 -48.001 19.3689 -48.001 43.2613C-48.001 67.1536 -28.6132 86.5225 -4.69757 86.5225L38.6058 86.5225L38.6058 43.2613Z" fill="#FFC700"/>
<path d="M38.6052 64.1456C38.6052 51.7878 28.5771 41.7695 16.2065 41.7695C3.83663 41.7695 -6.19141 51.7878 -6.1914 64.1456C-6.1914 76.5043 3.83664 86.5226 16.2065 86.5226L38.6052 86.5226L38.6052 64.1456Z" fill="#FFC700"/>
<path d="M-4.39881 173.48C-28.3144 173.48 -47.7022 154.111 -47.7022 130.219C-47.7022 106.327 -28.3144 86.9577 -4.39882 86.9577C19.5168 86.9577 38.9046 106.327 38.9046 130.219C38.9046 154.111 19.5168 173.48 -4.39881 173.48Z" fill="#F09A38"/>
<path d="M-4.84681 154.088C-18.1239 154.088 -28.8876 143.335 -28.8876 130.07C-28.8876 116.806 -18.1239 106.053 -4.84681 106.053C8.43025 106.053 19.194 116.806 19.194 130.07C19.194 143.335 8.43025 154.088 -4.84681 154.088Z" fill="#AE5C24"/>
</svg>
