<svg width="62" height="32" viewBox="0 0 62 32" fill="none" xmlns="http://www.w3.org/2000/svg">
<path fill-rule="evenodd" clip-rule="evenodd" d="M58.7007 4.30097C47.0641 25.9389 23.8189 34.736 2.22907 22.5543C1.51034 22.1487 0.598913 22.4023 0.19328 23.1121C-0.212352 23.8347 0.0411956 24.7473 0.759925 25.153C23.9013 38.2219 48.859 28.9051 61.3322 5.72068C61.7226 4.99815 61.4501 4.08535 60.7238 3.69239C59.9975 3.31211 59.0911 3.57844 58.7007 4.30097Z" fill="black"/>
<path d="M20.3972 13.2729C22.801 13.2729 24.7496 11.3243 24.7496 8.92061C24.7496 6.51688 22.801 4.5683 20.3972 4.5683C17.9935 4.5683 16.0449 6.51688 16.0449 8.92061C16.0449 11.3243 17.9935 13.2729 20.3972 13.2729Z" fill="black"/>
<path d="M38.4154 8.64382C40.7722 8.64382 42.6828 6.73332 42.6828 4.37656C42.6828 2.01981 40.7722 0.109314 38.4154 0.109314C36.0587 0.109314 34.1482 2.01981 34.1482 4.37656C34.1482 6.73332 36.0587 8.64382 38.4154 8.64382Z" fill="black"/>
</svg>
