<svg width="21" height="20" viewBox="0 0 21 20" fill="none" xmlns="http://www.w3.org/2000/svg">
<path d="M0.00201416 10.002C0.0031777 14.9214 3.58042 19.1101 8.43901 19.881V12.892H5.90201V10.002H8.44201V7.80204C8.32847 6.75958 8.68454 5.72064 9.41365 4.96698C10.1428 4.21332 11.1694 3.82306 12.215 3.90204C12.9656 3.91417 13.7142 3.98101 14.455 4.10205V6.56104H13.191C12.7559 6.50405 12.3184 6.64777 12.0018 6.95171C11.6852 7.25566 11.5238 7.68693 11.563 8.12404V10.002H14.334L13.891 12.893H11.563V19.881C16.8175 19.0506 20.5021 14.2518 19.9475 8.96112C19.3929 3.67041 14.7933 -0.260027 9.48084 0.0172227C4.16838 0.294472 0.00285864 4.68235 0.00201416 10.002Z" fill="white"/>
</svg>
