<svg width="1430" height="96" viewBox="0 0 1430 96" fill="none" xmlns="http://www.w3.org/2000/svg">
<path d="M1348.32 94.2878C1348.32 68.2512 1369.17 47.144 1394.91 47.144L1394.91 94.2878L1348.32 94.2878Z" fill="white" fill-opacity="0.1"/>
<path d="M1119 67.1456L1142.29 67.1456C1155.16 67.1456 1165.59 77.6991 1165.59 90.7175L1142.29 90.7175C1129.43 90.7175 1119 80.164 1119 67.1456Z" fill="white" fill-opacity="0.1"/>
<path d="M1348.32 94.2878L1348.32 47.144C1348.32 21.1074 1327.46 0.00016967 1301.73 0.00017192L1301.73 47.144C1301.73 73.1806 1322.58 94.2878 1348.32 94.2878Z" fill="white" fill-opacity="0.1"/>
<path d="M1394.91 94.2878L1394.91 47.144C1394.91 21.1074 1415.76 0.000170096 1441.5 0.000167847L1441.5 47.144C1441.5 73.1806 1420.64 94.2878 1394.91 94.2878Z" fill="white" fill-opacity="0.1"/>
<path d="M1203.41 82.1772C1203.41 86.0826 1200.28 89.2488 1196.42 89.2488C1192.56 89.2488 1189.43 86.0826 1189.43 82.1772C1189.43 78.2718 1192.56 75.1056 1196.42 75.1056C1200.28 75.1056 1203.41 78.2718 1203.41 82.1772Z" fill="white" fill-opacity="0.1"/>
<path d="M1180.91 82.1772C1180.91 86.0826 1177.78 89.2488 1173.92 89.2488C1170.07 89.2488 1166.94 86.0826 1166.94 82.1772C1166.94 78.2718 1170.07 75.1056 1173.92 75.1056C1177.78 75.1056 1180.91 78.2718 1180.91 82.1772Z" fill="white" fill-opacity="0.1"/>
<path d="M1208.55 70.7159C1208.55 83.7342 1218.98 94.2878 1231.84 94.2878C1244.71 94.2878 1255.14 83.7342 1255.14 70.7159C1255.14 57.6976 1244.71 47.144 1231.84 47.144L1208.55 47.144L1208.55 70.7159Z" fill="white" fill-opacity="0.1"/>
<path d="M1301.73 70.7159C1301.73 57.6976 1291.3 47.144 1278.43 47.144C1265.57 47.144 1255.14 57.6976 1255.14 70.7159C1255.14 83.7342 1265.57 94.2878 1278.43 94.2878L1301.73 94.2878L1301.73 70.7159Z" fill="white" fill-opacity="0.1"/>
<path d="M1301.73 82.0952C1301.73 75.3618 1296.33 69.9031 1289.68 69.9031C1283.02 69.9031 1277.63 75.3618 1277.63 82.0952C1277.63 88.8291 1283.02 94.2878 1289.68 94.2878L1301.73 94.2878L1301.73 82.0952Z" fill="white" fill-opacity="0.1"/>
<path d="M975.316 94.2878C975.316 68.2512 996.175 47.144 1021.91 47.144L1021.91 94.2878L975.316 94.2878Z" fill="white" fill-opacity="0.1"/>
<path d="M746 67.1456L769.295 67.1456C782.16 67.1456 792.59 77.6991 792.59 90.7175L769.295 90.7175C756.43 90.7175 746 80.164 746 67.1456Z" fill="white" fill-opacity="0.1"/>
<path d="M975.316 94.2878L975.316 47.144C975.316 21.1074 954.456 0.00016967 928.726 0.00017192L928.726 47.144C928.726 73.1806 949.585 94.2878 975.316 94.2878Z" fill="white" fill-opacity="0.1"/>
<path d="M1113.92 0.997742L1113.92 48.2229C1113.92 74.3044 1093.07 95.448 1067.33 95.448L1067.33 48.2229C1067.33 22.1414 1088.19 0.997744 1113.92 0.997742Z" fill="white" fill-opacity="0.1"/>
<path d="M1091.79 47.3066L1091.79 70.6784C1091.79 83.7174 1081.36 94.2878 1068.5 94.2878L1068.5 70.9159C1068.5 57.8765 1078.92 47.3066 1091.79 47.3066Z" fill="white" fill-opacity="0.1"/>
<path d="M1021.91 94.2878L1021.91 47.144C1021.91 21.1074 1042.76 0.000170096 1068.5 0.000167847L1068.5 47.144C1068.5 73.1806 1047.64 94.2878 1021.91 94.2878Z" fill="white" fill-opacity="0.1"/>
<path d="M830.406 82.1772C830.406 86.0826 827.277 89.2488 823.417 89.2488C819.558 89.2488 816.429 86.0826 816.429 82.1772C816.429 78.2718 819.558 75.1056 823.417 75.1056C827.277 75.1056 830.406 78.2718 830.406 82.1772Z" fill="white" fill-opacity="0.1"/>
<path d="M807.913 82.1772C807.913 86.0826 804.784 89.2488 800.925 89.2488C797.065 89.2488 793.936 86.0826 793.936 82.1772C793.936 78.2718 797.065 75.1056 800.925 75.1056C804.784 75.1056 807.913 78.2718 807.913 82.1772Z" fill="white" fill-opacity="0.1"/>
<path d="M835.546 70.7159C835.546 83.7342 845.976 94.2878 858.841 94.2878C871.706 94.2878 882.136 83.7342 882.136 70.7159C882.136 57.6976 871.706 47.144 858.841 47.144L835.546 47.144L835.546 70.7159Z" fill="white" fill-opacity="0.1"/>
<path d="M928.726 70.7159C928.726 57.6976 918.296 47.144 905.431 47.144C892.566 47.144 882.136 57.6976 882.136 70.7159C882.136 83.7342 892.566 94.2878 905.431 94.2878L928.726 94.2878L928.726 70.7159Z" fill="white" fill-opacity="0.1"/>
<path d="M928.726 82.0952C928.726 75.3618 923.331 69.9031 916.677 69.9031C910.022 69.9031 904.628 75.3618 904.628 82.0952C904.628 88.8291 910.022 94.2878 916.677 94.2878L928.726 94.2878L928.726 82.0952Z" fill="white" fill-opacity="0.1"/>
<path d="M602.316 94.2878C602.316 68.2512 623.175 47.144 648.905 47.144L648.905 94.2878L602.316 94.2878Z" fill="white" fill-opacity="0.1"/>
<path d="M373 67.1456L396.295 67.1456C409.16 67.1456 419.59 77.6991 419.59 90.7175L396.295 90.7175C383.43 90.7175 373 80.164 373 67.1456Z" fill="white" fill-opacity="0.1"/>
<path d="M602.316 94.2878L602.316 47.144C602.316 21.1074 581.456 0.00016967 555.726 0.00017192L555.726 47.144C555.726 73.1806 576.585 94.2878 602.316 94.2878Z" fill="white" fill-opacity="0.1"/>
<path d="M740.924 0.997742L740.924 48.2229C740.924 74.3044 720.065 95.448 694.335 95.448L694.335 48.2229C694.335 22.1414 715.193 0.997744 740.924 0.997742Z" fill="white" fill-opacity="0.1"/>
<path d="M718.79 47.3066L718.79 70.6784C718.79 83.7174 708.361 94.2878 695.495 94.2878L695.495 70.9159C695.495 57.8765 705.925 47.3066 718.79 47.3066Z" fill="white" fill-opacity="0.1"/>
<path d="M648.906 94.2878L648.906 47.144C648.906 21.1074 669.765 0.000170096 695.495 0.000167847L695.495 47.144C695.495 73.1806 674.636 94.2878 648.906 94.2878Z" fill="white" fill-opacity="0.1"/>
<path d="M457.406 82.1772C457.406 86.0826 454.277 89.2488 450.417 89.2488C446.558 89.2488 443.429 86.0826 443.429 82.1772C443.429 78.2718 446.558 75.1056 450.417 75.1056C454.277 75.1056 457.406 78.2718 457.406 82.1772Z" fill="white" fill-opacity="0.1"/>
<path d="M434.913 82.1772C434.913 86.0826 431.784 89.2488 427.925 89.2488C424.065 89.2488 420.936 86.0826 420.936 82.1772C420.936 78.2718 424.065 75.1056 427.925 75.1056C431.784 75.1056 434.913 78.2718 434.913 82.1772Z" fill="white" fill-opacity="0.1"/>
<path d="M462.546 70.7159C462.546 83.7342 472.976 94.2878 485.841 94.2878C498.706 94.2878 509.136 83.7342 509.136 70.7159C509.136 57.6976 498.706 47.144 485.841 47.144L462.546 47.144L462.546 70.7159Z" fill="white" fill-opacity="0.1"/>
<path d="M555.726 70.7159C555.726 57.6976 545.296 47.144 532.431 47.144C519.566 47.144 509.136 57.6976 509.136 70.7159C509.136 83.7342 519.566 94.2878 532.431 94.2878L555.726 94.2878L555.726 70.7159Z" fill="white" fill-opacity="0.1"/>
<path d="M555.726 82.0952C555.726 75.3618 550.331 69.9031 543.677 69.9031C537.022 69.9031 531.628 75.3618 531.628 82.0952C531.628 88.8291 537.022 94.2878 543.677 94.2878L555.726 94.2878L555.726 82.0952Z" fill="white" fill-opacity="0.1"/>
<path d="M229.316 94.2878C229.316 68.2512 250.175 47.144 275.905 47.144L275.905 94.2878L229.316 94.2878Z" fill="white" fill-opacity="0.1"/>
<path d="M6.27891e-05 67.1456L23.295 67.1456C36.1603 67.1456 46.5898 77.6991 46.5898 90.7175L23.295 90.7175C10.4297 90.7175 6.39272e-05 80.164 6.27891e-05 67.1456Z" fill="white" fill-opacity="0.1"/>
<path d="M229.316 94.2878L229.316 47.144C229.316 21.1074 208.456 0.00016967 182.726 0.00017192L182.726 47.144C182.726 73.1806 203.585 94.2878 229.316 94.2878Z" fill="white" fill-opacity="0.1"/>
<path d="M367.924 0.997742L367.924 48.2229C367.924 74.3044 347.065 95.448 321.335 95.448L321.335 48.2229C321.335 22.1414 342.193 0.997744 367.924 0.997742Z" fill="white" fill-opacity="0.1"/>
<path d="M345.79 47.3066L345.79 70.6784C345.79 83.7174 335.361 94.2878 322.495 94.2878L322.495 70.9159C322.495 57.8765 332.925 47.3066 345.79 47.3066Z" fill="white" fill-opacity="0.1"/>
<path d="M275.906 94.2878L275.906 47.144C275.906 21.1074 296.765 0.000170096 322.495 0.000167847L322.495 47.144C322.495 73.1806 301.636 94.2878 275.906 94.2878Z" fill="white" fill-opacity="0.1"/>
<path d="M84.4053 82.1772C84.4053 86.0826 81.2763 89.2488 77.4168 89.2488C73.5573 89.2488 70.4283 86.0826 70.4283 82.1772C70.4283 78.2718 73.5573 75.1056 77.4168 75.1056C81.2763 75.1056 84.4053 78.2718 84.4053 82.1772Z" fill="white" fill-opacity="0.1"/>
<path d="M61.9133 82.1772C61.9133 86.0826 58.7844 89.2488 54.9249 89.2488C51.0654 89.2488 47.9364 86.0826 47.9364 82.1772C47.9364 78.2718 51.0654 75.1056 54.9249 75.1056C58.7844 75.1056 61.9133 78.2718 61.9133 82.1772Z" fill="white" fill-opacity="0.1"/>
<path d="M89.5461 70.7159C89.5461 83.7342 99.9757 94.2878 112.841 94.2878C125.706 94.2878 136.136 83.7342 136.136 70.7159C136.136 57.6976 125.706 47.144 112.841 47.144L89.5461 47.144L89.5461 70.7159Z" fill="white" fill-opacity="0.1"/>
<path d="M182.726 70.7159C182.726 57.6976 172.296 47.144 159.431 47.144C146.566 47.144 136.136 57.6976 136.136 70.7159C136.136 83.7342 146.566 94.2878 159.431 94.2878L182.726 94.2878L182.726 70.7159Z" fill="white" fill-opacity="0.1"/>
<path d="M182.726 82.0952C182.726 75.3618 177.331 69.9031 170.677 69.9031C164.022 69.9031 158.628 75.3618 158.628 82.0952C158.628 88.8291 164.022 94.2878 170.677 94.2878L182.726 94.2878L182.726 82.0952Z" fill="white" fill-opacity="0.1"/>
</svg>
