<svg width="51" height="51" viewBox="0 0 51 51" fill="none" xmlns="http://www.w3.org/2000/svg">
<circle cx="25.5" cy="25.5" r="25.5" fill="white"/>
<path fill-rule="evenodd" clip-rule="evenodd" d="M33.307 32.9193C33.3614 32.9266 33.4159 32.934 33.4703 32.9416L33.7438 32.98C34.9346 33.1471 36 32.2395 36 31.0579V30.1561C36 29.311 35.4592 28.5572 34.649 28.273C33.7129 27.9446 32.7466 27.7308 31.7711 27.6316C32.789 28.3675 33.4203 29.5592 33.4203 30.8593V31.9789C33.4203 32.304 33.3809 32.6189 33.307 32.9193ZM29.1812 26.4319C29.5868 26.5994 30.0324 26.6919 30.5 26.6919C32.3813 26.6919 33.9064 25.1939 33.9064 23.3459C33.9064 21.4979 32.3813 19.9999 30.5 19.9999C30.4443 19.9999 30.3889 20.0012 30.3338 20.0038C30.6759 20.7324 30.8671 21.5459 30.8671 22.4041C30.8671 23.9806 30.2219 25.4064 29.1812 26.4319Z" fill="#F09A38"/>
<path fill-rule="evenodd" clip-rule="evenodd" d="M17.0739 32.9193C17.0194 32.9266 16.965 32.934 16.9106 32.9416L16.6371 32.98C15.4462 33.1471 14.3808 32.2395 14.3808 31.0579V30.1561C14.3808 29.311 14.9217 28.5572 15.7319 28.273C16.6679 27.9446 17.6343 27.7308 18.6098 27.6316C17.5919 28.3675 16.9606 29.5592 16.9606 30.8593V31.9789C16.9606 32.304 16.9999 32.6189 17.0739 32.9193ZM21.1997 26.4319C20.7941 26.5994 20.3485 26.6919 19.8808 26.6919C17.9995 26.6919 16.4744 25.1939 16.4744 23.3459C16.4744 21.4979 17.9995 19.9999 19.8808 19.9999C19.9366 19.9999 19.992 20.0012 20.0471 20.0038C19.705 20.7324 19.5138 21.5459 19.5138 22.4041C19.5138 23.9806 20.159 25.4064 21.1997 26.4319Z" fill="#F09A38"/>
<path fill-rule="evenodd" clip-rule="evenodd" d="M29.3671 22.4041C29.3671 20.1098 27.5071 18.2499 25.2128 18.2499C22.9185 18.2499 21.0586 20.1098 21.0586 22.4041C21.0586 24.6985 22.9185 26.5584 25.2128 26.5584C27.5071 26.5584 29.3671 24.6985 29.3671 22.4041Z" fill="#F09A38"/>
<path fill-rule="evenodd" clip-rule="evenodd" d="M20.153 28.5213C23.425 27.3528 27.0006 27.3528 30.2727 28.5213C31.2607 28.8742 31.9203 29.8101 31.9203 30.8593V31.9789C31.9203 33.4459 30.621 34.5728 29.1687 34.3653L28.8351 34.3177C26.4325 33.9744 23.9932 33.9744 21.5905 34.3177L21.2569 34.3653C19.8047 34.5728 18.5054 33.4459 18.5054 31.9789V30.8593C18.5054 29.8101 19.1649 28.8742 20.153 28.5213Z" fill="#F09A38"/>
</svg>
