<svg width="1440" height="100" viewBox="0 0 1440 100" fill="none" xmlns="http://www.w3.org/2000/svg">
<path d="M1152.04 4.10812C1177.77 4.10812 1198.63 25.2154 1198.63 51.252L1152.04 51.252L1152.04 4.10812Z" fill="url(#paint0_linear_1_127)" fill-opacity="0.02"/>
<path d="M1337.11 98.8398C1337.11 72.8032 1357.97 51.696 1383.7 51.696L1383.7 98.8398L1337.11 98.8398Z" fill="url(#paint1_linear_1_127)" fill-opacity="0.02"/>
<path d="M1151.45 79.5098L1174.75 79.5098C1187.61 79.5098 1198.04 68.9561 1198.04 55.9378L1174.75 55.9378C1161.88 55.9378 1151.45 66.4915 1151.45 79.5098Z" fill="url(#paint2_linear_1_127)" fill-opacity="0.02"/>
<path d="M1107.79 71.6973L1131.09 71.6973C1143.95 71.6973 1154.38 61.1437 1154.38 48.1253L1131.09 48.1254C1118.22 48.1254 1107.79 58.6789 1107.79 71.6973Z" fill="url(#paint3_linear_1_127)" fill-opacity="0.02"/>
<path d="M1107.79 71.6976L1131.09 71.6976C1143.95 71.6976 1154.38 82.2511 1154.38 95.2695L1131.09 95.2695C1118.22 95.2695 1107.79 84.716 1107.79 71.6976Z" fill="url(#paint4_linear_1_127)" fill-opacity="0.02"/>
<path d="M1337.11 98.8398L1337.11 51.696C1337.11 25.6594 1316.25 4.55217 1290.52 4.55217L1290.52 51.696C1290.52 77.7326 1311.38 98.8398 1337.11 98.8398Z" fill="url(#paint5_linear_1_127)" fill-opacity="0.02"/>
<path d="M1475.72 5.54974L1475.72 52.7749C1475.72 78.8564 1454.86 100 1429.13 100L1429.13 52.7749C1429.13 26.6934 1449.99 5.54975 1475.72 5.54974Z" fill="url(#paint6_linear_1_127)" fill-opacity="0.02"/>
<path d="M1453.58 51.8586L1453.58 75.2304C1453.58 88.2694 1443.16 98.8398 1430.29 98.8398L1430.29 75.4679C1430.29 62.4285 1440.72 51.8586 1453.58 51.8586Z" fill="url(#paint7_linear_1_127)" fill-opacity="0.02"/>
<path d="M1383.7 98.8398L1383.7 51.696C1383.7 25.6594 1404.56 4.55217 1430.29 4.55217L1430.29 51.696C1430.29 77.7326 1409.43 98.8398 1383.7 98.8398Z" fill="url(#paint8_linear_1_127)" fill-opacity="0.02"/>
<path d="M1406.99 51.3711L1406.99 27.9992C1406.99 14.9602 1417.42 4.38983 1430.29 4.38982L1430.29 27.7617C1430.29 40.8012 1419.86 51.3711 1406.99 51.3711Z" fill="url(#paint9_linear_1_127)" fill-opacity="0.02"/>
<path d="M1197.34 51.6953L1243.93 51.6953C1269.66 51.6953 1290.52 30.5881 1290.52 4.55148L1243.93 4.55148C1218.2 4.55148 1197.34 25.6587 1197.34 51.6953Z" fill="url(#paint10_linear_1_127)" fill-opacity="0.02"/>
<path d="M1243.93 28.125L1267.11 28.125C1280.04 28.125 1290.52 17.5714 1290.52 4.55307L1267.34 4.55308C1254.41 4.55308 1243.93 15.1067 1243.93 28.125Z" fill="url(#paint11_linear_1_127)" fill-opacity="0.02"/>
<path d="M1192.2 86.7292C1192.2 90.6346 1189.07 93.8008 1185.21 93.8008C1181.35 93.8008 1178.22 90.6346 1178.22 86.7292C1178.22 82.8238 1181.35 79.6576 1185.21 79.6576C1189.07 79.6576 1192.2 82.8238 1192.2 86.7292Z" fill="url(#paint12_linear_1_127)" fill-opacity="0.02"/>
<path d="M1169.71 86.7292C1169.71 90.6346 1166.58 93.8008 1162.72 93.8008C1158.86 93.8008 1155.73 90.6346 1155.73 86.7292C1155.73 82.8238 1158.86 79.6576 1162.72 79.6576C1166.58 79.6576 1169.71 82.8238 1169.71 86.7292Z" fill="url(#paint13_linear_1_127)" fill-opacity="0.02"/>
<path d="M1206.18 7.07295C1206.18 10.9783 1203.05 14.1445 1199.19 14.1445C1195.33 14.1445 1192.2 10.9784 1192.2 7.07295C1192.2 3.16756 1195.33 0.00137329 1199.19 0.00137295C1203.05 0.00137261 1206.18 3.16755 1206.18 7.07295Z" fill="url(#paint14_linear_1_127)" fill-opacity="0.02"/>
<path d="M1197.34 75.2679C1197.34 88.2862 1207.77 98.8398 1220.64 98.8398C1233.5 98.8398 1243.93 88.2862 1243.93 75.2679C1243.93 62.2496 1233.5 51.696 1220.64 51.696L1197.34 51.696L1197.34 75.2679Z" fill="url(#paint15_linear_1_127)" fill-opacity="0.02"/>
<path d="M1197.34 63.8879C1197.34 70.6214 1202.74 76.0801 1209.39 76.0801C1216.04 76.0801 1221.44 70.6214 1221.44 63.8879C1221.44 57.154 1216.04 51.6953 1209.39 51.6953L1197.34 51.6953L1197.34 63.8879Z" fill="url(#paint16_linear_1_127)" fill-opacity="0.02"/>
<path d="M1290.52 75.2679C1290.52 62.2496 1280.09 51.696 1267.23 51.696C1254.36 51.696 1243.93 62.2496 1243.93 75.2679C1243.93 88.2862 1254.36 98.8398 1267.23 98.8398L1290.52 98.8398L1290.52 75.2679Z" fill="url(#paint17_linear_1_127)" fill-opacity="0.02"/>
<path d="M1290.52 86.6472C1290.52 79.9138 1285.13 74.4551 1278.47 74.4551C1271.82 74.4551 1266.42 79.9138 1266.42 86.6472C1266.42 93.3811 1271.82 98.8398 1278.47 98.8398L1290.52 98.8398L1290.52 86.6472Z" fill="url(#paint18_linear_1_127)" fill-opacity="0.02"/>
<path d="M1383.7 28.1234C1383.7 41.1417 1373.27 51.6953 1360.41 51.6953C1347.54 51.6953 1337.11 41.1417 1337.11 28.1234C1337.11 15.1051 1347.54 4.55148 1360.41 4.55148C1373.27 4.55148 1383.7 15.1051 1383.7 28.1234Z" fill="url(#paint19_linear_1_127)" fill-opacity="0.02"/>
<path d="M1373.26 28.0424C1373.26 35.2697 1367.47 41.1289 1360.32 41.1289C1353.18 41.1289 1347.39 35.2697 1347.39 28.0424C1347.39 20.8151 1353.18 14.956 1360.32 14.956C1367.47 14.956 1373.26 20.8151 1373.26 28.0424Z" fill="url(#paint20_linear_1_127)" fill-opacity="0.02"/>
<path d="M1149.59 4.11007C1149.59 30.1467 1128.73 51.2539 1103 51.2539L1103 4.11007L1149.59 4.11007Z" fill="url(#paint21_linear_1_127)" fill-opacity="0.02"/>
<path d="M779.036 4.10812C804.767 4.10812 825.626 25.2154 825.626 51.252L779.036 51.252L779.036 4.10812Z" fill="url(#paint22_linear_1_127)" fill-opacity="0.02"/>
<path d="M964.11 98.8398C964.11 72.8032 984.969 51.696 1010.7 51.696L1010.7 98.8398L964.11 98.8398Z" fill="url(#paint23_linear_1_127)" fill-opacity="0.02"/>
<path d="M778.45 79.5098L801.745 79.5098C814.61 79.5098 825.04 68.9561 825.04 55.9378L801.745 55.9378C788.88 55.9378 778.45 66.4915 778.45 79.5098Z" fill="url(#paint24_linear_1_127)" fill-opacity="0.02"/>
<path d="M734.794 71.6973L758.089 71.6973C770.955 71.6973 781.384 61.1437 781.384 48.1253L758.089 48.1254C745.224 48.1254 734.794 58.6789 734.794 71.6973Z" fill="url(#paint25_linear_1_127)" fill-opacity="0.02"/>
<path d="M734.794 71.6976L758.089 71.6976C770.955 71.6976 781.384 82.2511 781.384 95.2695L758.089 95.2695C745.224 95.2695 734.794 84.716 734.794 71.6976Z" fill="url(#paint26_linear_1_127)" fill-opacity="0.02"/>
<path d="M964.11 98.8398L964.11 51.696C964.11 25.6594 943.251 4.55217 917.52 4.55217L917.52 51.696C917.52 77.7326 938.379 98.8398 964.11 98.8398Z" fill="url(#paint27_linear_1_127)" fill-opacity="0.02"/>
<path d="M1102.72 5.54974L1102.72 52.7749C1102.72 78.8564 1081.86 100 1056.13 100L1056.13 52.7749C1056.13 26.6934 1076.99 5.54975 1102.72 5.54974Z" fill="url(#paint28_linear_1_127)" fill-opacity="0.02"/>
<path d="M1080.58 51.8586L1080.58 75.2304C1080.58 88.2694 1070.16 98.8398 1057.29 98.8398L1057.29 75.4679C1057.29 62.4285 1067.72 51.8586 1080.58 51.8586Z" fill="url(#paint29_linear_1_127)" fill-opacity="0.02"/>
<path d="M1010.7 98.8398L1010.7 51.696C1010.7 25.6594 1031.56 4.55217 1057.29 4.55217L1057.29 51.696C1057.29 77.7326 1036.43 98.8398 1010.7 98.8398Z" fill="url(#paint30_linear_1_127)" fill-opacity="0.02"/>
<path d="M1033.99 51.3711L1033.99 27.9992C1033.99 14.9602 1044.42 4.38983 1057.29 4.38982L1057.29 27.7617C1057.29 40.8012 1046.86 51.3711 1033.99 51.3711Z" fill="url(#paint31_linear_1_127)" fill-opacity="0.02"/>
<path d="M824.341 51.6953L870.931 51.6953C896.661 51.6953 917.52 30.5881 917.52 4.55148L870.931 4.55148C845.2 4.55148 824.341 25.6587 824.341 51.6953Z" fill="url(#paint32_linear_1_127)" fill-opacity="0.02"/>
<path d="M870.931 28.125L894.108 28.125C907.038 28.125 917.521 17.5714 917.521 4.55307L894.343 4.55308C881.413 4.55308 870.931 15.1067 870.931 28.125Z" fill="url(#paint33_linear_1_127)" fill-opacity="0.02"/>
<path d="M819.2 86.7292C819.2 90.6346 816.071 93.8008 812.212 93.8008C808.352 93.8008 805.223 90.6346 805.223 86.7292C805.223 82.8238 808.352 79.6576 812.212 79.6576C816.071 79.6576 819.2 82.8238 819.2 86.7292Z" fill="url(#paint34_linear_1_127)" fill-opacity="0.02"/>
<path d="M796.708 86.7292C796.708 90.6346 793.579 93.8008 789.72 93.8008C785.86 93.8008 782.731 90.6346 782.731 86.7292C782.731 82.8238 785.86 79.6576 789.72 79.6576C793.579 79.6576 796.708 82.8238 796.708 86.7292Z" fill="url(#paint35_linear_1_127)" fill-opacity="0.02"/>
<path d="M833.177 7.07295C833.177 10.9783 830.048 14.1445 826.188 14.1445C822.329 14.1445 819.2 10.9784 819.2 7.07295C819.2 3.16756 822.329 0.00137329 826.188 0.00137295C830.048 0.00137261 833.177 3.16755 833.177 7.07295Z" fill="url(#paint36_linear_1_127)" fill-opacity="0.02"/>
<path d="M824.341 75.2679C824.341 88.2862 834.77 98.8398 847.635 98.8398C860.501 98.8398 870.93 88.2862 870.93 75.2679C870.93 62.2496 860.501 51.696 847.635 51.696L824.341 51.696L824.341 75.2679Z" fill="url(#paint37_linear_1_127)" fill-opacity="0.02"/>
<path d="M824.341 63.8879C824.341 70.6214 829.735 76.0801 836.39 76.0801C843.045 76.0801 848.439 70.6214 848.439 63.8879C848.439 57.154 843.045 51.6953 836.39 51.6953L824.341 51.6953L824.341 63.8879Z" fill="url(#paint38_linear_1_127)" fill-opacity="0.02"/>
<path d="M917.52 75.2679C917.52 62.2496 907.091 51.696 894.226 51.696C881.36 51.696 870.931 62.2496 870.931 75.2679C870.931 88.2862 881.36 98.8398 894.226 98.8398L917.52 98.8398L917.52 75.2679Z" fill="url(#paint39_linear_1_127)" fill-opacity="0.02"/>
<path d="M917.52 86.6472C917.52 79.9138 912.126 74.4551 905.471 74.4551C898.817 74.4551 893.422 79.9138 893.422 86.6472C893.422 93.3811 898.817 98.8398 905.471 98.8398L917.52 98.8398L917.52 86.6472Z" fill="url(#paint40_linear_1_127)" fill-opacity="0.02"/>
<path d="M1010.7 28.1234C1010.7 41.1417 1000.27 51.6953 987.406 51.6953C974.541 51.6953 964.111 41.1417 964.111 28.1234C964.111 15.1051 974.541 4.55148 987.406 4.55148C1000.27 4.55148 1010.7 15.1051 1010.7 28.1234Z" fill="url(#paint41_linear_1_127)" fill-opacity="0.02"/>
<path d="M1000.26 28.0424C1000.26 35.2697 994.467 41.1289 987.324 41.1289C980.182 41.1289 974.392 35.2697 974.392 28.0424C974.392 20.8151 980.182 14.956 987.324 14.956C994.467 14.956 1000.26 20.8151 1000.26 28.0424Z" fill="url(#paint42_linear_1_127)" fill-opacity="0.02"/>
<path d="M776.59 4.11007C776.59 30.1467 755.731 51.2539 730 51.2539L730 4.11007L776.59 4.11007Z" fill="url(#paint43_linear_1_127)" fill-opacity="0.02"/>
<path d="M406.037 4.10812C431.767 4.10812 452.626 25.2154 452.626 51.252L406.037 51.252L406.037 4.10812Z" fill="url(#paint44_linear_1_127)" fill-opacity="0.02"/>
<path d="M591.111 98.8398C591.111 72.8032 611.97 51.696 637.7 51.696L637.7 98.8398L591.111 98.8398Z" fill="url(#paint45_linear_1_127)" fill-opacity="0.02"/>
<path d="M405.451 79.5098L428.746 79.5098C441.611 79.5098 452.041 68.9561 452.041 55.9378L428.746 55.9378C415.88 55.9378 405.451 66.4915 405.451 79.5098Z" fill="url(#paint46_linear_1_127)" fill-opacity="0.02"/>
<path d="M361.795 71.6973L385.09 71.6973C397.955 71.6973 408.385 61.1437 408.385 48.1253L385.09 48.1254C372.225 48.1254 361.795 58.6789 361.795 71.6973Z" fill="url(#paint47_linear_1_127)" fill-opacity="0.02"/>
<path d="M361.795 71.6976L385.09 71.6976C397.955 71.6976 408.385 82.2511 408.385 95.2695L385.09 95.2695C372.225 95.2695 361.795 84.716 361.795 71.6976Z" fill="url(#paint48_linear_1_127)" fill-opacity="0.02"/>
<path d="M591.111 98.8398L591.111 51.696C591.111 25.6594 570.251 4.55217 544.521 4.55217L544.521 51.696C544.521 77.7326 565.38 98.8398 591.111 98.8398Z" fill="url(#paint49_linear_1_127)" fill-opacity="0.02"/>
<path d="M729.719 5.54974L729.719 52.7749C729.719 78.8564 708.86 100 683.129 100L683.129 52.7749C683.129 26.6934 703.988 5.54975 729.719 5.54974Z" fill="url(#paint50_linear_1_127)" fill-opacity="0.02"/>
<path d="M707.585 51.8586L707.585 75.2304C707.585 88.2694 697.156 98.8398 684.29 98.8398L684.29 75.4679C684.29 62.4285 694.72 51.8586 707.585 51.8586Z" fill="url(#paint51_linear_1_127)" fill-opacity="0.02"/>
<path d="M637.7 98.8398L637.7 51.696C637.7 25.6594 658.56 4.55217 684.29 4.55217L684.29 51.696C684.29 77.7326 663.431 98.8398 637.7 98.8398Z" fill="url(#paint52_linear_1_127)" fill-opacity="0.02"/>
<path d="M660.995 51.3711L660.995 27.9992C660.995 14.9602 671.425 4.38983 684.29 4.38982L684.29 27.7617C684.29 40.8012 673.86 51.3711 660.995 51.3711Z" fill="url(#paint53_linear_1_127)" fill-opacity="0.02"/>
<path d="M451.341 51.6953L497.931 51.6953C523.662 51.6953 544.521 30.5881 544.521 4.55148L497.931 4.55148C472.201 4.55148 451.341 25.6587 451.341 51.6953Z" fill="url(#paint54_linear_1_127)" fill-opacity="0.02"/>
<path d="M497.931 28.125L521.108 28.125C534.039 28.125 544.521 17.5714 544.521 4.55307L521.344 4.55308C508.413 4.55308 497.931 15.1067 497.931 28.125Z" fill="url(#paint55_linear_1_127)" fill-opacity="0.02"/>
<path d="M446.201 86.7292C446.201 90.6346 443.072 93.8008 439.212 93.8008C435.353 93.8008 432.224 90.6346 432.224 86.7292C432.224 82.8238 435.353 79.6576 439.212 79.6576C443.072 79.6576 446.201 82.8238 446.201 86.7292Z" fill="url(#paint56_linear_1_127)" fill-opacity="0.02"/>
<path d="M423.708 86.7292C423.708 90.6346 420.58 93.8008 416.72 93.8008C412.861 93.8008 409.732 90.6346 409.732 86.7292C409.732 82.8238 412.861 79.6576 416.72 79.6576C420.58 79.6576 423.708 82.8238 423.708 86.7292Z" fill="url(#paint57_linear_1_127)" fill-opacity="0.02"/>
<path d="M460.177 7.07295C460.177 10.9783 457.048 14.1445 453.189 14.1445C449.329 14.1445 446.2 10.9784 446.2 7.07295C446.2 3.16756 449.329 0.00137329 453.189 0.00137295C457.048 0.00137261 460.177 3.16755 460.177 7.07295Z" fill="url(#paint58_linear_1_127)" fill-opacity="0.02"/>
<path d="M451.341 75.2679C451.341 88.2862 461.771 98.8398 474.636 98.8398C487.501 98.8398 497.931 88.2862 497.931 75.2679C497.931 62.2496 487.501 51.696 474.636 51.696L451.341 51.696L451.341 75.2679Z" fill="url(#paint59_linear_1_127)" fill-opacity="0.02"/>
<path d="M451.341 63.8879C451.341 70.6214 456.736 76.0801 463.391 76.0801C470.045 76.0801 475.44 70.6214 475.44 63.8879C475.44 57.154 470.045 51.6953 463.391 51.6953L451.341 51.6953L451.341 63.8879Z" fill="url(#paint60_linear_1_127)" fill-opacity="0.02"/>
<path d="M544.521 75.2679C544.521 62.2496 534.091 51.696 521.226 51.696C508.361 51.696 497.931 62.2496 497.931 75.2679C497.931 88.2862 508.361 98.8398 521.226 98.8398L544.521 98.8398L544.521 75.2679Z" fill="url(#paint61_linear_1_127)" fill-opacity="0.02"/>
<path d="M544.521 86.6472C544.521 79.9138 539.126 74.4551 532.472 74.4551C525.817 74.4551 520.423 79.9138 520.423 86.6472C520.423 93.3811 525.817 98.8398 532.472 98.8398L544.521 98.8398L544.521 86.6472Z" fill="url(#paint62_linear_1_127)" fill-opacity="0.02"/>
<path d="M637.701 28.1234C637.701 41.1417 627.272 51.6953 614.406 51.6953C601.541 51.6953 591.111 41.1417 591.111 28.1234C591.111 15.1051 601.541 4.55148 614.406 4.55148C627.272 4.55148 637.701 15.1051 637.701 28.1234Z" fill="url(#paint63_linear_1_127)" fill-opacity="0.02"/>
<path d="M627.258 28.0424C627.258 35.2697 621.467 41.1289 614.325 41.1289C607.182 41.1289 601.392 35.2697 601.392 28.0424C601.392 20.8151 607.182 14.956 614.325 14.956C621.467 14.956 627.258 20.8151 627.258 28.0424Z" fill="url(#paint64_linear_1_127)" fill-opacity="0.02"/>
<path d="M403.59 4.11007C403.59 30.1467 382.731 51.2539 357 51.2539L357 4.11007L403.59 4.11007Z" fill="url(#paint65_linear_1_127)" fill-opacity="0.02"/>
<path d="M33.0362 4.10812C58.7668 4.10812 79.626 25.2154 79.626 51.252L33.0362 51.252L33.0362 4.10812Z" fill="url(#paint66_linear_1_127)" fill-opacity="0.02"/>
<path d="M218.11 98.8398C218.11 72.8032 238.97 51.696 264.7 51.696L264.7 98.8398L218.11 98.8398Z" fill="url(#paint67_linear_1_127)" fill-opacity="0.02"/>
<path d="M32.4503 79.5098L55.7451 79.5098C68.6105 79.5098 79.04 68.9561 79.04 55.9378L55.7451 55.9378C42.8798 55.9378 32.4503 66.4915 32.4503 79.5098Z" fill="url(#paint68_linear_1_127)" fill-opacity="0.02"/>
<path d="M-11.206 71.6973L12.0889 71.6973C24.9542 71.6973 35.3838 61.1437 35.3838 48.1253L12.0889 48.1254C-0.776404 48.1254 -11.206 58.6789 -11.206 71.6973Z" fill="url(#paint69_linear_1_127)" fill-opacity="0.02"/>
<path d="M-11.206 71.6976L12.0889 71.6976C24.9542 71.6976 35.3838 82.2511 35.3838 95.2695L12.0889 95.2695C-0.776402 95.2695 -11.206 84.716 -11.206 71.6976Z" fill="url(#paint70_linear_1_127)" fill-opacity="0.02"/>
<path d="M218.11 98.8398L218.11 51.696C218.11 25.6594 197.251 4.55217 171.521 4.55217L171.521 51.696C171.521 77.7326 192.38 98.8398 218.11 98.8398Z" fill="url(#paint71_linear_1_127)" fill-opacity="0.02"/>
<path d="M356.719 5.54974L356.719 52.7749C356.719 78.8564 335.86 100 310.129 100L310.129 52.7749C310.129 26.6934 330.988 5.54975 356.719 5.54974Z" fill="url(#paint72_linear_1_127)" fill-opacity="0.02"/>
<path d="M334.585 51.8586L334.585 75.2304C334.585 88.2694 324.155 98.8398 311.29 98.8398L311.29 75.4679C311.29 62.4285 321.72 51.8586 334.585 51.8586Z" fill="url(#paint73_linear_1_127)" fill-opacity="0.02"/>
<path d="M264.7 98.8398L264.7 51.696C264.7 25.6594 285.559 4.55217 311.29 4.55217L311.29 51.696C311.29 77.7326 290.431 98.8398 264.7 98.8398Z" fill="url(#paint74_linear_1_127)" fill-opacity="0.02"/>
<path d="M287.994 51.3711L287.994 27.9992C287.994 14.9602 298.424 4.38983 311.289 4.38982L311.289 27.7617C311.289 40.8012 300.859 51.3711 287.994 51.3711Z" fill="url(#paint75_linear_1_127)" fill-opacity="0.02"/>
<path d="M78.3409 51.6953L124.931 51.6953C150.661 51.6953 171.52 30.5881 171.52 4.55148L124.931 4.55148C99.2001 4.55148 78.3409 25.6587 78.3409 51.6953Z" fill="url(#paint76_linear_1_127)" fill-opacity="0.02"/>
<path d="M124.931 28.125L148.108 28.125C161.038 28.125 171.521 17.5714 171.521 4.55307L148.343 4.55308C135.413 4.55308 124.931 15.1067 124.931 28.125Z" fill="url(#paint77_linear_1_127)" fill-opacity="0.02"/>
<path d="M73.2002 86.7292C73.2002 90.6346 70.0712 93.8008 66.2117 93.8008C62.3522 93.8008 59.2232 90.6346 59.2232 86.7292C59.2232 82.8238 62.3522 79.6576 66.2117 79.6576C70.0712 79.6576 73.2002 82.8238 73.2002 86.7292Z" fill="url(#paint78_linear_1_127)" fill-opacity="0.02"/>
<path d="M50.708 86.7292C50.708 90.6346 47.579 93.8008 43.7195 93.8008C39.8601 93.8008 36.7311 90.6346 36.7311 86.7292C36.7311 82.8238 39.8601 79.6576 43.7195 79.6576C47.579 79.6576 50.708 82.8238 50.708 86.7292Z" fill="url(#paint79_linear_1_127)" fill-opacity="0.02"/>
<path d="M87.1768 7.07295C87.1768 10.9783 84.0478 14.1445 80.1883 14.1445C76.3288 14.1445 73.1998 10.9784 73.1998 7.07295C73.1998 3.16756 76.3288 0.00137329 80.1883 0.00137295C84.0478 0.00137261 87.1768 3.16755 87.1768 7.07295Z" fill="url(#paint80_linear_1_127)" fill-opacity="0.02"/>
<path d="M78.3409 75.2679C78.3409 88.2862 88.7705 98.8398 101.636 98.8398C114.501 98.8398 124.931 88.2862 124.931 75.2679C124.931 62.2496 114.501 51.696 101.636 51.696L78.3409 51.696L78.3409 75.2679Z" fill="url(#paint81_linear_1_127)" fill-opacity="0.02"/>
<path d="M78.3413 63.8879C78.3413 70.6214 83.7359 76.0801 90.3906 76.0801C97.0449 76.0801 102.439 70.6214 102.439 63.8879C102.439 57.154 97.0449 51.6953 90.3906 51.6953L78.3413 51.6953L78.3413 63.8879Z" fill="url(#paint82_linear_1_127)" fill-opacity="0.02"/>
<path d="M171.52 75.2679C171.52 62.2496 161.091 51.696 148.226 51.696C135.36 51.696 124.931 62.2496 124.931 75.2679C124.931 88.2862 135.36 98.8398 148.226 98.8398L171.52 98.8398L171.52 75.2679Z" fill="url(#paint83_linear_1_127)" fill-opacity="0.02"/>
<path d="M171.52 86.6472C171.52 79.9138 166.126 74.4551 159.471 74.4551C152.817 74.4551 147.422 79.9138 147.422 86.6472C147.422 93.3811 152.817 98.8398 159.471 98.8398L171.52 98.8398L171.52 86.6472Z" fill="url(#paint84_linear_1_127)" fill-opacity="0.02"/>
<path d="M264.701 28.1234C264.701 41.1417 254.272 51.6953 241.406 51.6953C228.541 51.6953 218.111 41.1417 218.111 28.1234C218.111 15.1051 228.541 4.55148 241.406 4.55148C254.272 4.55148 264.701 15.1051 264.701 28.1234Z" fill="url(#paint85_linear_1_127)" fill-opacity="0.02"/>
<path d="M254.257 28.0424C254.257 35.2697 248.467 41.1289 241.324 41.1289C234.182 41.1289 228.392 35.2697 228.392 28.0424C228.392 20.8151 234.182 14.956 241.324 14.956C248.467 14.956 254.257 20.8151 254.257 28.0424Z" fill="url(#paint86_linear_1_127)" fill-opacity="0.02"/>
<path d="M30.5898 4.11007C30.5898 30.1467 9.7306 51.2539 -16 51.2539L-16 4.11007L30.5898 4.11007Z" fill="url(#paint87_linear_1_127)" fill-opacity="0.02"/>
<defs>
<linearGradient id="paint0_linear_1_127" x1="1175.33" y1="51.252" x2="1175.33" y2="17.5446" gradientUnits="userSpaceOnUse">
<stop stop-color="#004568"/>
<stop offset="0.932292" stop-color="#004568" stop-opacity="0"/>
</linearGradient>
<linearGradient id="paint1_linear_1_127" x1="1337.11" y1="75.2679" x2="1370.42" y2="75.2679" gradientUnits="userSpaceOnUse">
<stop stop-color="#004568"/>
<stop offset="0.932292" stop-color="#004568" stop-opacity="0"/>
</linearGradient>
<linearGradient id="paint2_linear_1_127" x1="1174.75" y1="79.5098" x2="1174.75" y2="62.6561" gradientUnits="userSpaceOnUse">
<stop stop-color="#004568"/>
<stop offset="0.932292" stop-color="#004568" stop-opacity="0"/>
</linearGradient>
<linearGradient id="paint3_linear_1_127" x1="1131.09" y1="71.6973" x2="1131.09" y2="54.8436" gradientUnits="userSpaceOnUse">
<stop stop-color="#004568"/>
<stop offset="0.932292" stop-color="#004568" stop-opacity="0"/>
</linearGradient>
<linearGradient id="paint4_linear_1_127" x1="1131.09" y1="95.2695" x2="1131.09" y2="78.4159" gradientUnits="userSpaceOnUse">
<stop stop-color="#004568"/>
<stop offset="0.932292" stop-color="#004568" stop-opacity="0"/>
</linearGradient>
<linearGradient id="paint5_linear_1_127" x1="1313.82" y1="98.8398" x2="1313.82" y2="31.4251" gradientUnits="userSpaceOnUse">
<stop stop-color="#004568"/>
<stop offset="0.932292" stop-color="#004568" stop-opacity="0"/>
</linearGradient>
<linearGradient id="paint6_linear_1_127" x1="1452.42" y1="100" x2="1452.42" y2="32.469" gradientUnits="userSpaceOnUse">
<stop stop-color="#004568"/>
<stop offset="0.932292" stop-color="#004568" stop-opacity="0"/>
</linearGradient>
<linearGradient id="paint7_linear_1_127" x1="1441.94" y1="98.8398" x2="1441.94" y2="65.2487" gradientUnits="userSpaceOnUse">
<stop stop-color="#004568"/>
<stop offset="0.932292" stop-color="#004568" stop-opacity="0"/>
</linearGradient>
<linearGradient id="paint8_linear_1_127" x1="1406.99" y1="98.8398" x2="1406.99" y2="31.4251" gradientUnits="userSpaceOnUse">
<stop stop-color="#004568"/>
<stop offset="0.932292" stop-color="#004568" stop-opacity="0"/>
</linearGradient>
<linearGradient id="paint9_linear_1_127" x1="1418.64" y1="51.3711" x2="1418.64" y2="17.78" gradientUnits="userSpaceOnUse">
<stop stop-color="#004568"/>
<stop offset="0.932292" stop-color="#004568" stop-opacity="0"/>
</linearGradient>
<linearGradient id="paint10_linear_1_127" x1="1243.93" y1="51.6953" x2="1243.93" y2="17.988" gradientUnits="userSpaceOnUse">
<stop stop-color="#004568"/>
<stop offset="0.932292" stop-color="#004568" stop-opacity="0"/>
</linearGradient>
<linearGradient id="paint11_linear_1_127" x1="1267.23" y1="28.125" x2="1267.23" y2="11.2713" gradientUnits="userSpaceOnUse">
<stop stop-color="#004568"/>
<stop offset="0.932292" stop-color="#004568" stop-opacity="0"/>
</linearGradient>
<linearGradient id="paint12_linear_1_127" x1="1185.21" y1="93.8008" x2="1185.21" y2="83.6886" gradientUnits="userSpaceOnUse">
<stop stop-color="#004568"/>
<stop offset="0.932292" stop-color="#004568" stop-opacity="0"/>
</linearGradient>
<linearGradient id="paint13_linear_1_127" x1="1162.72" y1="93.8008" x2="1162.72" y2="83.6886" gradientUnits="userSpaceOnUse">
<stop stop-color="#004568"/>
<stop offset="0.932292" stop-color="#004568" stop-opacity="0"/>
</linearGradient>
<linearGradient id="paint14_linear_1_127" x1="1199.19" y1="14.1445" x2="1199.19" y2="4.03232" gradientUnits="userSpaceOnUse">
<stop stop-color="#004568"/>
<stop offset="0.932292" stop-color="#004568" stop-opacity="0"/>
</linearGradient>
<linearGradient id="paint15_linear_1_127" x1="1220.64" y1="98.8398" x2="1220.64" y2="65.1325" gradientUnits="userSpaceOnUse">
<stop stop-color="#004568"/>
<stop offset="0.932292" stop-color="#004568" stop-opacity="0"/>
</linearGradient>
<linearGradient id="paint16_linear_1_127" x1="1209.39" y1="76.0801" x2="1209.39" y2="58.6452" gradientUnits="userSpaceOnUse">
<stop stop-color="#004568"/>
<stop offset="0.932292" stop-color="#004568" stop-opacity="0"/>
</linearGradient>
<linearGradient id="paint17_linear_1_127" x1="1267.23" y1="98.8398" x2="1267.23" y2="65.1325" gradientUnits="userSpaceOnUse">
<stop stop-color="#004568"/>
<stop offset="0.932292" stop-color="#004568" stop-opacity="0"/>
</linearGradient>
<linearGradient id="paint18_linear_1_127" x1="1278.47" y1="98.8398" x2="1278.47" y2="81.405" gradientUnits="userSpaceOnUse">
<stop stop-color="#004568"/>
<stop offset="0.932292" stop-color="#004568" stop-opacity="0"/>
</linearGradient>
<linearGradient id="paint19_linear_1_127" x1="1360.41" y1="51.6953" x2="1360.41" y2="17.9879" gradientUnits="userSpaceOnUse">
<stop stop-color="#004568"/>
<stop offset="0.932292" stop-color="#004568" stop-opacity="0"/>
</linearGradient>
<linearGradient id="paint20_linear_1_127" x1="1360.32" y1="41.1289" x2="1360.32" y2="22.4155" gradientUnits="userSpaceOnUse">
<stop stop-color="#004568"/>
<stop offset="0.932292" stop-color="#004568" stop-opacity="0"/>
</linearGradient>
<linearGradient id="paint21_linear_1_127" x1="1103" y1="27.682" x2="1136.31" y2="27.682" gradientUnits="userSpaceOnUse">
<stop stop-color="#004568"/>
<stop offset="0.932292" stop-color="#004568" stop-opacity="0"/>
</linearGradient>
<linearGradient id="paint22_linear_1_127" x1="802.331" y1="51.252" x2="802.331" y2="17.5446" gradientUnits="userSpaceOnUse">
<stop stop-color="#004568"/>
<stop offset="0.932292" stop-color="#004568" stop-opacity="0"/>
</linearGradient>
<linearGradient id="paint23_linear_1_127" x1="964.11" y1="75.2679" x2="997.421" y2="75.2679" gradientUnits="userSpaceOnUse">
<stop stop-color="#004568"/>
<stop offset="0.932292" stop-color="#004568" stop-opacity="0"/>
</linearGradient>
<linearGradient id="paint24_linear_1_127" x1="801.745" y1="79.5098" x2="801.745" y2="62.6561" gradientUnits="userSpaceOnUse">
<stop stop-color="#004568"/>
<stop offset="0.932292" stop-color="#004568" stop-opacity="0"/>
</linearGradient>
<linearGradient id="paint25_linear_1_127" x1="758.089" y1="71.6973" x2="758.089" y2="54.8436" gradientUnits="userSpaceOnUse">
<stop stop-color="#004568"/>
<stop offset="0.932292" stop-color="#004568" stop-opacity="0"/>
</linearGradient>
<linearGradient id="paint26_linear_1_127" x1="758.089" y1="95.2695" x2="758.089" y2="78.4159" gradientUnits="userSpaceOnUse">
<stop stop-color="#004568"/>
<stop offset="0.932292" stop-color="#004568" stop-opacity="0"/>
</linearGradient>
<linearGradient id="paint27_linear_1_127" x1="940.815" y1="98.8398" x2="940.815" y2="31.4251" gradientUnits="userSpaceOnUse">
<stop stop-color="#004568"/>
<stop offset="0.932292" stop-color="#004568" stop-opacity="0"/>
</linearGradient>
<linearGradient id="paint28_linear_1_127" x1="1079.42" y1="100" x2="1079.42" y2="32.469" gradientUnits="userSpaceOnUse">
<stop stop-color="#004568"/>
<stop offset="0.932292" stop-color="#004568" stop-opacity="0"/>
</linearGradient>
<linearGradient id="paint29_linear_1_127" x1="1068.94" y1="98.8398" x2="1068.94" y2="65.2487" gradientUnits="userSpaceOnUse">
<stop stop-color="#004568"/>
<stop offset="0.932292" stop-color="#004568" stop-opacity="0"/>
</linearGradient>
<linearGradient id="paint30_linear_1_127" x1="1033.99" y1="98.8398" x2="1033.99" y2="31.4251" gradientUnits="userSpaceOnUse">
<stop stop-color="#004568"/>
<stop offset="0.932292" stop-color="#004568" stop-opacity="0"/>
</linearGradient>
<linearGradient id="paint31_linear_1_127" x1="1045.64" y1="51.3711" x2="1045.64" y2="17.78" gradientUnits="userSpaceOnUse">
<stop stop-color="#004568"/>
<stop offset="0.932292" stop-color="#004568" stop-opacity="0"/>
</linearGradient>
<linearGradient id="paint32_linear_1_127" x1="870.931" y1="51.6953" x2="870.931" y2="17.988" gradientUnits="userSpaceOnUse">
<stop stop-color="#004568"/>
<stop offset="0.932292" stop-color="#004568" stop-opacity="0"/>
</linearGradient>
<linearGradient id="paint33_linear_1_127" x1="894.226" y1="28.125" x2="894.226" y2="11.2713" gradientUnits="userSpaceOnUse">
<stop stop-color="#004568"/>
<stop offset="0.932292" stop-color="#004568" stop-opacity="0"/>
</linearGradient>
<linearGradient id="paint34_linear_1_127" x1="812.212" y1="93.8008" x2="812.212" y2="83.6886" gradientUnits="userSpaceOnUse">
<stop stop-color="#004568"/>
<stop offset="0.932292" stop-color="#004568" stop-opacity="0"/>
</linearGradient>
<linearGradient id="paint35_linear_1_127" x1="789.72" y1="93.8008" x2="789.72" y2="83.6886" gradientUnits="userSpaceOnUse">
<stop stop-color="#004568"/>
<stop offset="0.932292" stop-color="#004568" stop-opacity="0"/>
</linearGradient>
<linearGradient id="paint36_linear_1_127" x1="826.188" y1="14.1445" x2="826.188" y2="4.03232" gradientUnits="userSpaceOnUse">
<stop stop-color="#004568"/>
<stop offset="0.932292" stop-color="#004568" stop-opacity="0"/>
</linearGradient>
<linearGradient id="paint37_linear_1_127" x1="847.635" y1="98.8398" x2="847.635" y2="65.1325" gradientUnits="userSpaceOnUse">
<stop stop-color="#004568"/>
<stop offset="0.932292" stop-color="#004568" stop-opacity="0"/>
</linearGradient>
<linearGradient id="paint38_linear_1_127" x1="836.39" y1="76.0801" x2="836.39" y2="58.6452" gradientUnits="userSpaceOnUse">
<stop stop-color="#004568"/>
<stop offset="0.932292" stop-color="#004568" stop-opacity="0"/>
</linearGradient>
<linearGradient id="paint39_linear_1_127" x1="894.226" y1="98.8398" x2="894.226" y2="65.1325" gradientUnits="userSpaceOnUse">
<stop stop-color="#004568"/>
<stop offset="0.932292" stop-color="#004568" stop-opacity="0"/>
</linearGradient>
<linearGradient id="paint40_linear_1_127" x1="905.471" y1="98.8398" x2="905.471" y2="81.405" gradientUnits="userSpaceOnUse">
<stop stop-color="#004568"/>
<stop offset="0.932292" stop-color="#004568" stop-opacity="0"/>
</linearGradient>
<linearGradient id="paint41_linear_1_127" x1="987.406" y1="51.6953" x2="987.406" y2="17.9879" gradientUnits="userSpaceOnUse">
<stop stop-color="#004568"/>
<stop offset="0.932292" stop-color="#004568" stop-opacity="0"/>
</linearGradient>
<linearGradient id="paint42_linear_1_127" x1="987.324" y1="41.1289" x2="987.324" y2="22.4155" gradientUnits="userSpaceOnUse">
<stop stop-color="#004568"/>
<stop offset="0.932292" stop-color="#004568" stop-opacity="0"/>
</linearGradient>
<linearGradient id="paint43_linear_1_127" x1="730" y1="27.682" x2="763.311" y2="27.682" gradientUnits="userSpaceOnUse">
<stop stop-color="#004568"/>
<stop offset="0.932292" stop-color="#004568" stop-opacity="0"/>
</linearGradient>
<linearGradient id="paint44_linear_1_127" x1="429.332" y1="51.252" x2="429.332" y2="17.5446" gradientUnits="userSpaceOnUse">
<stop stop-color="#004568"/>
<stop offset="0.932292" stop-color="#004568" stop-opacity="0"/>
</linearGradient>
<linearGradient id="paint45_linear_1_127" x1="591.111" y1="75.2679" x2="624.422" y2="75.2679" gradientUnits="userSpaceOnUse">
<stop stop-color="#004568"/>
<stop offset="0.932292" stop-color="#004568" stop-opacity="0"/>
</linearGradient>
<linearGradient id="paint46_linear_1_127" x1="428.746" y1="79.5098" x2="428.746" y2="62.6561" gradientUnits="userSpaceOnUse">
<stop stop-color="#004568"/>
<stop offset="0.932292" stop-color="#004568" stop-opacity="0"/>
</linearGradient>
<linearGradient id="paint47_linear_1_127" x1="385.09" y1="71.6973" x2="385.09" y2="54.8436" gradientUnits="userSpaceOnUse">
<stop stop-color="#004568"/>
<stop offset="0.932292" stop-color="#004568" stop-opacity="0"/>
</linearGradient>
<linearGradient id="paint48_linear_1_127" x1="385.09" y1="95.2695" x2="385.09" y2="78.4159" gradientUnits="userSpaceOnUse">
<stop stop-color="#004568"/>
<stop offset="0.932292" stop-color="#004568" stop-opacity="0"/>
</linearGradient>
<linearGradient id="paint49_linear_1_127" x1="567.816" y1="98.8398" x2="567.816" y2="31.4251" gradientUnits="userSpaceOnUse">
<stop stop-color="#004568"/>
<stop offset="0.932292" stop-color="#004568" stop-opacity="0"/>
</linearGradient>
<linearGradient id="paint50_linear_1_127" x1="706.424" y1="100" x2="706.424" y2="32.469" gradientUnits="userSpaceOnUse">
<stop stop-color="#004568"/>
<stop offset="0.932292" stop-color="#004568" stop-opacity="0"/>
</linearGradient>
<linearGradient id="paint51_linear_1_127" x1="695.938" y1="98.8398" x2="695.938" y2="65.2487" gradientUnits="userSpaceOnUse">
<stop stop-color="#004568"/>
<stop offset="0.932292" stop-color="#004568" stop-opacity="0"/>
</linearGradient>
<linearGradient id="paint52_linear_1_127" x1="660.995" y1="98.8398" x2="660.995" y2="31.4251" gradientUnits="userSpaceOnUse">
<stop stop-color="#004568"/>
<stop offset="0.932292" stop-color="#004568" stop-opacity="0"/>
</linearGradient>
<linearGradient id="paint53_linear_1_127" x1="672.643" y1="51.3711" x2="672.643" y2="17.78" gradientUnits="userSpaceOnUse">
<stop stop-color="#004568"/>
<stop offset="0.932292" stop-color="#004568" stop-opacity="0"/>
</linearGradient>
<linearGradient id="paint54_linear_1_127" x1="497.931" y1="51.6953" x2="497.931" y2="17.988" gradientUnits="userSpaceOnUse">
<stop stop-color="#004568"/>
<stop offset="0.932292" stop-color="#004568" stop-opacity="0"/>
</linearGradient>
<linearGradient id="paint55_linear_1_127" x1="521.226" y1="28.125" x2="521.226" y2="11.2713" gradientUnits="userSpaceOnUse">
<stop stop-color="#004568"/>
<stop offset="0.932292" stop-color="#004568" stop-opacity="0"/>
</linearGradient>
<linearGradient id="paint56_linear_1_127" x1="439.212" y1="93.8008" x2="439.212" y2="83.6886" gradientUnits="userSpaceOnUse">
<stop stop-color="#004568"/>
<stop offset="0.932292" stop-color="#004568" stop-opacity="0"/>
</linearGradient>
<linearGradient id="paint57_linear_1_127" x1="416.72" y1="93.8008" x2="416.72" y2="83.6886" gradientUnits="userSpaceOnUse">
<stop stop-color="#004568"/>
<stop offset="0.932292" stop-color="#004568" stop-opacity="0"/>
</linearGradient>
<linearGradient id="paint58_linear_1_127" x1="453.189" y1="14.1445" x2="453.189" y2="4.03232" gradientUnits="userSpaceOnUse">
<stop stop-color="#004568"/>
<stop offset="0.932292" stop-color="#004568" stop-opacity="0"/>
</linearGradient>
<linearGradient id="paint59_linear_1_127" x1="474.636" y1="98.8398" x2="474.636" y2="65.1325" gradientUnits="userSpaceOnUse">
<stop stop-color="#004568"/>
<stop offset="0.932292" stop-color="#004568" stop-opacity="0"/>
</linearGradient>
<linearGradient id="paint60_linear_1_127" x1="463.39" y1="76.0801" x2="463.39" y2="58.6452" gradientUnits="userSpaceOnUse">
<stop stop-color="#004568"/>
<stop offset="0.932292" stop-color="#004568" stop-opacity="0"/>
</linearGradient>
<linearGradient id="paint61_linear_1_127" x1="521.226" y1="98.8398" x2="521.226" y2="65.1325" gradientUnits="userSpaceOnUse">
<stop stop-color="#004568"/>
<stop offset="0.932292" stop-color="#004568" stop-opacity="0"/>
</linearGradient>
<linearGradient id="paint62_linear_1_127" x1="532.472" y1="98.8398" x2="532.472" y2="81.405" gradientUnits="userSpaceOnUse">
<stop stop-color="#004568"/>
<stop offset="0.932292" stop-color="#004568" stop-opacity="0"/>
</linearGradient>
<linearGradient id="paint63_linear_1_127" x1="614.406" y1="51.6953" x2="614.406" y2="17.9879" gradientUnits="userSpaceOnUse">
<stop stop-color="#004568"/>
<stop offset="0.932292" stop-color="#004568" stop-opacity="0"/>
</linearGradient>
<linearGradient id="paint64_linear_1_127" x1="614.325" y1="41.1289" x2="614.325" y2="22.4155" gradientUnits="userSpaceOnUse">
<stop stop-color="#004568"/>
<stop offset="0.932292" stop-color="#004568" stop-opacity="0"/>
</linearGradient>
<linearGradient id="paint65_linear_1_127" x1="357" y1="27.682" x2="390.312" y2="27.682" gradientUnits="userSpaceOnUse">
<stop stop-color="#004568"/>
<stop offset="0.932292" stop-color="#004568" stop-opacity="0"/>
</linearGradient>
<linearGradient id="paint66_linear_1_127" x1="56.3311" y1="51.252" x2="56.3311" y2="17.5446" gradientUnits="userSpaceOnUse">
<stop stop-color="#004568"/>
<stop offset="0.932292" stop-color="#004568" stop-opacity="0"/>
</linearGradient>
<linearGradient id="paint67_linear_1_127" x1="218.11" y1="75.2679" x2="251.422" y2="75.2679" gradientUnits="userSpaceOnUse">
<stop stop-color="#004568"/>
<stop offset="0.932292" stop-color="#004568" stop-opacity="0"/>
</linearGradient>
<linearGradient id="paint68_linear_1_127" x1="55.7452" y1="79.5098" x2="55.7452" y2="62.6561" gradientUnits="userSpaceOnUse">
<stop stop-color="#004568"/>
<stop offset="0.932292" stop-color="#004568" stop-opacity="0"/>
</linearGradient>
<linearGradient id="paint69_linear_1_127" x1="12.0889" y1="71.6973" x2="12.0889" y2="54.8436" gradientUnits="userSpaceOnUse">
<stop stop-color="#004568"/>
<stop offset="0.932292" stop-color="#004568" stop-opacity="0"/>
</linearGradient>
<linearGradient id="paint70_linear_1_127" x1="12.0889" y1="95.2695" x2="12.0889" y2="78.4159" gradientUnits="userSpaceOnUse">
<stop stop-color="#004568"/>
<stop offset="0.932292" stop-color="#004568" stop-opacity="0"/>
</linearGradient>
<linearGradient id="paint71_linear_1_127" x1="194.815" y1="98.8398" x2="194.815" y2="31.4251" gradientUnits="userSpaceOnUse">
<stop stop-color="#004568"/>
<stop offset="0.932292" stop-color="#004568" stop-opacity="0"/>
</linearGradient>
<linearGradient id="paint72_linear_1_127" x1="333.424" y1="100" x2="333.424" y2="32.469" gradientUnits="userSpaceOnUse">
<stop stop-color="#004568"/>
<stop offset="0.932292" stop-color="#004568" stop-opacity="0"/>
</linearGradient>
<linearGradient id="paint73_linear_1_127" x1="322.938" y1="98.8398" x2="322.938" y2="65.2487" gradientUnits="userSpaceOnUse">
<stop stop-color="#004568"/>
<stop offset="0.932292" stop-color="#004568" stop-opacity="0"/>
</linearGradient>
<linearGradient id="paint74_linear_1_127" x1="287.995" y1="98.8398" x2="287.995" y2="31.4251" gradientUnits="userSpaceOnUse">
<stop stop-color="#004568"/>
<stop offset="0.932292" stop-color="#004568" stop-opacity="0"/>
</linearGradient>
<linearGradient id="paint75_linear_1_127" x1="299.642" y1="51.3711" x2="299.642" y2="17.78" gradientUnits="userSpaceOnUse">
<stop stop-color="#004568"/>
<stop offset="0.932292" stop-color="#004568" stop-opacity="0"/>
</linearGradient>
<linearGradient id="paint76_linear_1_127" x1="124.931" y1="51.6953" x2="124.931" y2="17.988" gradientUnits="userSpaceOnUse">
<stop stop-color="#004568"/>
<stop offset="0.932292" stop-color="#004568" stop-opacity="0"/>
</linearGradient>
<linearGradient id="paint77_linear_1_127" x1="148.226" y1="28.125" x2="148.226" y2="11.2713" gradientUnits="userSpaceOnUse">
<stop stop-color="#004568"/>
<stop offset="0.932292" stop-color="#004568" stop-opacity="0"/>
</linearGradient>
<linearGradient id="paint78_linear_1_127" x1="66.2117" y1="93.8008" x2="66.2117" y2="83.6886" gradientUnits="userSpaceOnUse">
<stop stop-color="#004568"/>
<stop offset="0.932292" stop-color="#004568" stop-opacity="0"/>
</linearGradient>
<linearGradient id="paint79_linear_1_127" x1="43.7195" y1="93.8008" x2="43.7195" y2="83.6886" gradientUnits="userSpaceOnUse">
<stop stop-color="#004568"/>
<stop offset="0.932292" stop-color="#004568" stop-opacity="0"/>
</linearGradient>
<linearGradient id="paint80_linear_1_127" x1="80.1883" y1="14.1445" x2="80.1883" y2="4.03232" gradientUnits="userSpaceOnUse">
<stop stop-color="#004568"/>
<stop offset="0.932292" stop-color="#004568" stop-opacity="0"/>
</linearGradient>
<linearGradient id="paint81_linear_1_127" x1="101.636" y1="98.8398" x2="101.636" y2="65.1325" gradientUnits="userSpaceOnUse">
<stop stop-color="#004568"/>
<stop offset="0.932292" stop-color="#004568" stop-opacity="0"/>
</linearGradient>
<linearGradient id="paint82_linear_1_127" x1="90.3904" y1="76.0801" x2="90.3904" y2="58.6452" gradientUnits="userSpaceOnUse">
<stop stop-color="#004568"/>
<stop offset="0.932292" stop-color="#004568" stop-opacity="0"/>
</linearGradient>
<linearGradient id="paint83_linear_1_127" x1="148.226" y1="98.8398" x2="148.226" y2="65.1325" gradientUnits="userSpaceOnUse">
<stop stop-color="#004568"/>
<stop offset="0.932292" stop-color="#004568" stop-opacity="0"/>
</linearGradient>
<linearGradient id="paint84_linear_1_127" x1="159.471" y1="98.8398" x2="159.471" y2="81.405" gradientUnits="userSpaceOnUse">
<stop stop-color="#004568"/>
<stop offset="0.932292" stop-color="#004568" stop-opacity="0"/>
</linearGradient>
<linearGradient id="paint85_linear_1_127" x1="241.406" y1="51.6953" x2="241.406" y2="17.9879" gradientUnits="userSpaceOnUse">
<stop stop-color="#004568"/>
<stop offset="0.932292" stop-color="#004568" stop-opacity="0"/>
</linearGradient>
<linearGradient id="paint86_linear_1_127" x1="241.324" y1="41.1289" x2="241.324" y2="22.4155" gradientUnits="userSpaceOnUse">
<stop stop-color="#004568"/>
<stop offset="0.932292" stop-color="#004568" stop-opacity="0"/>
</linearGradient>
<linearGradient id="paint87_linear_1_127" x1="-16" y1="27.682" x2="17.3112" y2="27.682" gradientUnits="userSpaceOnUse">
<stop stop-color="#004568"/>
<stop offset="0.932292" stop-color="#004568" stop-opacity="0"/>
</linearGradient>
</defs>
</svg>
