<svg width="51" height="51" viewBox="0 0 51 51" fill="none" xmlns="http://www.w3.org/2000/svg">
<circle cx="25.5" cy="25.5" r="25.5" fill="#F0F1F1"/>
<path d="M16.1471 16.2646C15.7409 16.1833 15.3458 16.4467 15.2646 16.8529C15.1833 17.2591 15.4467 17.6542 15.8529 17.7354L16.1471 16.2646ZM18.8 20.5L18.0537 20.5746L18.0545 20.582L18.0553 20.5894L18.8 20.5ZM35.2855 23.3578L34.5579 23.1759L35.2855 23.3578ZM34.1628 27.8489L33.4352 27.667L34.1628 27.8489ZM18.6472 18.972L17.9009 19.0467L18.6472 18.972ZM15.8529 17.7354L16.9023 17.9453L17.1964 16.4744L16.1471 16.2646L15.8529 17.7354ZM21.7743 31.25H30.7673V29.75H21.7743V31.25ZM34.8904 28.0308L36.0131 23.5397L34.5579 23.1759L33.4352 27.667L34.8904 28.0308ZM17.9009 19.0467L18.0537 20.5746L19.5463 20.4254L19.3935 18.8974L17.9009 19.0467ZM18.0553 20.5894L19.0439 28.8277L20.5333 28.6489L19.5447 20.4106L18.0553 20.5894ZM33.0542 19.75H18.8V21.25H33.0542V19.75ZM36.0131 23.5397C36.4944 21.6147 35.0385 19.75 33.0542 19.75V21.25C34.0626 21.25 34.8025 22.1977 34.5579 23.1759L36.0131 23.5397ZM30.7673 31.25C32.7175 31.25 34.4174 29.9227 34.8904 28.0308L33.4352 27.667C33.1291 28.8912 32.0292 29.75 30.7673 29.75V31.25ZM21.7743 29.75C21.1416 29.75 20.6086 29.2772 20.5333 28.6489L19.0439 28.8277C19.2098 30.2098 20.3823 31.25 21.7743 31.25V29.75ZM16.9023 17.9453C17.441 18.0531 17.8463 18.5 17.9009 19.0467L19.3935 18.8974C19.2732 17.6947 18.3817 16.7115 17.1964 16.4744L16.9023 17.9453Z" fill="#525152"/>
<path d="M27 27.5H23" stroke="#525152" stroke-width="1.5" stroke-linecap="round" stroke-linejoin="round"/>
<circle cx="22.5" cy="34" r="1.5" fill="#525152"/>
<circle cx="31.5" cy="34" r="1.5" fill="#525152"/>
</svg>
