<svg width="13" height="14" viewBox="0 0 13 14" fill="none" xmlns="http://www.w3.org/2000/svg">
<path d="M10.6229 2.9941C10.5284 2.94526 10.4364 2.89173 10.3473 2.83369C10.0881 2.66233 9.85041 2.46042 9.63943 2.23231C9.11154 1.62829 8.91438 1.01553 8.84176 0.586512H8.84467C8.78401 0.230405 8.80909 0 8.81288 0H6.4085V9.29729C6.4085 9.42211 6.4085 9.54548 6.40325 9.66739C6.40325 9.68256 6.4018 9.69656 6.40092 9.71289C6.40092 9.7196 6.40092 9.7266 6.39946 9.7336C6.39946 9.73535 6.39946 9.7371 6.39946 9.73885C6.37412 10.0724 6.26718 10.3947 6.08807 10.6772C5.90895 10.9598 5.66314 11.194 5.37226 11.3593C5.0691 11.5317 4.72622 11.6222 4.37744 11.6218C3.2572 11.6218 2.34929 10.7083 2.34929 9.58019C2.34929 8.45208 3.2572 7.53862 4.37744 7.53862C4.58949 7.53843 4.80024 7.5718 5.00187 7.63749L5.00478 5.18937C4.39271 5.1103 3.7709 5.15895 3.17857 5.33223C2.58623 5.50551 2.03624 5.79967 1.56329 6.19615C1.14887 6.55622 0.800466 6.98586 0.533756 7.46571C0.432261 7.6407 0.0493218 8.34387 0.00294915 9.48511C-0.0262161 10.1329 0.168316 10.804 0.261061 11.0813V11.0872C0.319392 11.2505 0.545422 11.8078 0.913779 12.2777C1.21081 12.6546 1.56174 12.9857 1.95527 13.2603V13.2544L1.9611 13.2603C3.12508 14.0512 4.41565 13.9993 4.41565 13.9993C4.63905 13.9903 5.38743 13.9993 6.2373 13.5965C7.17992 13.15 7.71656 12.4848 7.71656 12.4848C8.0594 12.0873 8.332 11.6343 8.52269 11.1452C8.74026 10.5733 8.81288 9.8873 8.81288 9.61314V4.68072C8.84205 4.69822 9.23053 4.95517 9.23053 4.95517C9.23053 4.95517 9.79021 5.3139 10.6634 5.54751C11.2899 5.71376 12.1339 5.74875 12.1339 5.74875V3.36187C11.8382 3.39396 11.2377 3.30063 10.6229 2.9941Z" fill="white"/>
</svg>
